<svg width="37" height="29" viewBox="0 0 37 29" fill="none" xmlns="http://www.w3.org/2000/svg">
<path d="M2.18885 0.0417202C0.700739 -0.00360934 0.451212 2.15229 1.9103 2.44823L4.59844 3.03704C6.02039 9.83936 7.5704 16.6139 9.07346 23.3992C9.19705 23.9555 9.69057 24.3514 10.2605 24.3512H31.6065C33.2511 24.3756 33.2511 21.896 31.6065 21.9201H11.2362L10.6981 19.4898H32.6835C33.2534 19.4899 33.7469 19.0941 33.8705 18.5377L36.5626 6.38372C36.7304 5.62509 36.1533 4.90591 35.3764 4.90545C26.0761 4.90567 16.7758 4.90527 7.47578 4.90087L6.81502 1.76595C6.71655 1.29808 6.35297 0.931433 5.88601 0.828967L2.42949 0.0723782C2.35047 0.0541545 2.26988 0.043711 2.18885 0.0417202Z" fill="white"/>
<path fill-rule="evenodd" clip-rule="evenodd" d="M15.2159 28.9114C16.9327 28.9114 18.3244 27.5196 18.3244 25.8029C18.3244 25.8028 18.3244 25.8028 18.3244 25.8027H12.1074C12.1074 25.8028 12.1074 25.8028 12.1074 25.8029C12.1074 27.5196 13.4991 28.9114 15.2159 28.9114Z" fill="white"/>
<path fill-rule="evenodd" clip-rule="evenodd" d="M26.6297 28.9114C28.3465 28.9114 29.7382 27.5196 29.7382 25.8029C29.7382 25.8028 29.7382 25.8028 29.7382 25.8027H23.5212C23.5212 25.8028 23.5212 25.8028 23.5212 25.8029C23.5212 27.5196 24.913 28.9114 26.6297 28.9114Z" fill="white"/>
</svg>
