<svg width="732" height="115" viewBox="0 0 732 115" fill="none" xmlns="http://www.w3.org/2000/svg">
<mask id="mask0" mask-type="alpha" maskUnits="userSpaceOnUse" x="0" y="0" width="732" height="115">
<path d="M0.328125 6.54883C0.328125 3.23512 3.01442 0.548828 6.32813 0.548828H725.674C728.987 0.548828 731.674 3.23512 731.674 6.54883V114.254H0.328125V6.54883Z" fill="#C4C4C4"/>
</mask>
<g mask="url(#mask0)">
<rect x="-4" y="-4" width="743" height="125" fill="#FFCD9F"/>
<ellipse cx="340.904" cy="91.5945" rx="18.0902" ry="10.9396" transform="rotate(-11.4699 340.904 91.5945)" fill="#3E4C57"/>
<path d="M329.766 93.4324L328.219 72.8073C331.656 66.8948 341.637 68.3107 345.876 69.0555L351.422 87.2449C352.453 89.3074 348.427 93.4324 345.234 94.6355C335.747 98.2105 330.969 95.323 329.766 93.4324Z" fill="#1E272E"/>
<path d="M329.597 93.6063L329.25 88.6579C339.819 93.3274 349.522 84.1617 350.215 82.4324L351.428 87.3806C352.467 89.4558 348.409 93.6063 345.19 94.8168C335.626 98.4139 330.809 95.5086 329.597 93.6063Z" fill="#C2863F"/>
<path fill-rule="evenodd" clip-rule="evenodd" d="M347.328 84.2712L349.784 93.4808L349.484 93.7621L349.013 93.2605C349.484 93.7621 349.484 93.7622 349.483 93.7624L349.482 93.7638L349.479 93.7666L349.47 93.7748C349.463 93.7814 349.453 93.7905 349.44 93.8018C349.415 93.8244 349.379 93.856 349.333 93.8954C349.24 93.9742 349.106 94.0842 348.933 94.216C348.586 94.4793 348.082 94.8305 347.438 95.192C346.152 95.914 344.294 96.6859 342.021 96.8677L341.369 96.9199L340.152 87.5886H340.935C342.205 87.5886 343.577 86.9808 344.684 86.3126C345.226 85.985 345.683 85.6567 346.003 85.4105C346.163 85.2877 346.288 85.186 346.372 85.116C346.414 85.081 346.446 85.0539 346.467 85.0362C346.477 85.0273 346.485 85.0208 346.489 85.0167L346.494 85.0123L347.328 84.2712ZM346.556 86.7143C346.239 86.9468 345.844 87.218 345.394 87.4897C344.408 88.0853 343.09 88.7239 341.711 88.91L342.561 95.426C344.293 95.1852 345.729 94.5748 346.765 93.993C347.345 93.6671 347.797 93.3523 348.101 93.1214C348.15 93.0839 348.195 93.0486 348.237 93.0159L346.556 86.7143Z" fill="#E6C330"/>
<ellipse cx="337.067" cy="71.1858" rx="9.07875" ry="5.49014" transform="rotate(-11.4699 337.067 71.1858)" fill="#3E4C57"/>
<ellipse cx="718.904" cy="91.5945" rx="18.0902" ry="10.9396" transform="rotate(-11.4699 718.904 91.5945)" fill="#3E4C57"/>
<path d="M707.766 93.4324L706.219 72.8073C709.656 66.8948 719.637 68.3107 723.876 69.0555L729.422 87.2449C730.453 89.3074 726.427 93.4324 723.234 94.6355C713.747 98.2105 708.969 95.323 707.766 93.4324Z" fill="#1E272E"/>
<path d="M707.597 93.6063L707.25 88.6579C717.819 93.3274 727.522 84.1617 728.215 82.4324L729.428 87.3806C730.467 89.4558 726.409 93.6063 723.19 94.8168C713.626 98.4139 708.809 95.5086 707.597 93.6063Z" fill="#C2863F"/>
<path fill-rule="evenodd" clip-rule="evenodd" d="M725.328 84.2712L727.784 93.4808L727.484 93.7621L727.013 93.2605C727.484 93.7621 727.484 93.7622 727.483 93.7624L727.482 93.7638L727.479 93.7666L727.47 93.7748C727.463 93.7814 727.453 93.7905 727.44 93.8018C727.415 93.8244 727.379 93.856 727.333 93.8954C727.24 93.9742 727.106 94.0842 726.933 94.216C726.586 94.4793 726.082 94.8305 725.438 95.192C724.152 95.914 722.294 96.6859 720.021 96.8677L719.369 96.9199L718.152 87.5886H718.935C720.205 87.5886 721.577 86.9808 722.684 86.3126C723.226 85.985 723.683 85.6567 724.003 85.4105C724.163 85.2877 724.288 85.186 724.372 85.116C724.414 85.081 724.446 85.0539 724.467 85.0362C724.477 85.0273 724.485 85.0208 724.489 85.0167L724.494 85.0123L725.328 84.2712ZM724.556 86.7143C724.239 86.9468 723.844 87.218 723.394 87.4897C722.408 88.0853 721.09 88.7239 719.711 88.91L720.561 95.426C722.293 95.1852 723.729 94.5748 724.765 93.993C725.345 93.6671 725.797 93.3523 726.101 93.1214C726.15 93.0839 726.195 93.0486 726.237 93.0159L724.556 86.7143Z" fill="#E6C330"/>
<ellipse cx="715.067" cy="71.1858" rx="9.07875" ry="5.49014" transform="rotate(-11.4699 715.067 71.1858)" fill="#3E4C57"/>
<path d="M110.497 66.3889C108.273 66.3889 107.224 67.9946 106.977 68.7974C110.83 70.7242 113.152 69.3532 113.831 68.4268C113.646 67.7475 112.72 66.3889 110.497 66.3889Z" fill="#FF8C21"/>
<path d="M118.651 66.7593C116.724 66.0182 115.378 67.0681 114.945 67.6856C115.983 69.9088 119.33 70.0941 120.874 69.9088C120.936 69.1678 120.577 67.5003 118.651 66.7593Z" fill="#FF8C21"/>
<path d="M105.31 68.0562C108.867 67.6116 109.757 69.3531 109.757 70.2794C101.791 79.728 103.457 89.5472 103.086 90.6588C102.716 91.7704 100.308 94.5494 98.4553 91.9556C96.6027 89.3619 95.4911 83.9892 96.2321 79.1722C96.9732 74.3553 100.864 68.612 105.31 68.0562Z" fill="#FFA724"/>
<path d="M119.76 68.612C117.982 68.7603 117.907 69.7854 118.093 70.2794C119.266 78.6165 122.243 95.2534 124.763 95.1052C127.912 94.9199 132.729 88.4356 129.579 78.8017C126.43 69.1678 121.983 68.4268 119.76 68.612Z" fill="#FFA724"/>
<path d="M119.389 70.0942C115.388 72.1692 110.311 70.9588 108.273 70.0942C110.682 69.7236 111.794 67.6858 112.164 65.6478C112.535 63.6099 113.09 61.9425 114.017 60.6456C114.943 59.3487 117.722 59.9045 115.684 63.2393C114.054 65.9072 117.475 68.9208 119.389 70.0942Z" fill="#AAA500"/>
<path d="M110.128 69.3533C111.759 69.3533 112.413 70.0943 112.537 70.4649C112.908 75.4671 106.422 91.2147 106.607 91.9558C106.793 92.6969 106.979 98.9959 103.088 95.1053C99.1975 91.2147 100.309 83.063 102.347 77.6903C104.385 72.3175 108.09 69.3533 110.128 69.3533Z" fill="#FF8C21"/>
<path d="M117.722 69.7237C115.499 69.1308 114.82 70.9588 114.758 71.9469C114.634 79.7281 114.61 95.4758 115.499 96.2168C116.611 97.1432 119.019 99.3664 123.095 97.3284C127.171 95.2905 126.986 87.5093 125.689 80.8397C124.392 74.1701 120.501 70.4647 117.722 69.7237Z" fill="#FF8C21"/>
<path d="M104.6 88.4355C104.156 81.0248 108.738 73.2436 111.085 70.2794C116.643 66.574 117.199 81.0248 118.31 88.065C119.422 95.1051 115.902 100.663 111.641 100.107C107.38 99.5515 105.156 97.6988 104.6 88.4355Z" fill="#FFA724"/>
<path d="M488.497 66.3889C486.273 66.3889 485.224 67.9946 484.977 68.7974C488.83 70.7242 491.152 69.3532 491.831 68.4268C491.646 67.7475 490.72 66.3889 488.497 66.3889Z" fill="#FF8C21"/>
<path d="M496.651 66.7593C494.724 66.0182 493.378 67.0681 492.945 67.6856C493.983 69.9088 497.33 70.0941 498.874 69.9088C498.936 69.1678 498.577 67.5003 496.651 66.7593Z" fill="#FF8C21"/>
<path d="M483.31 68.0562C486.867 67.6116 487.757 69.3531 487.757 70.2794C479.791 79.728 481.457 89.5472 481.086 90.6588C480.716 91.7704 478.308 94.5494 476.455 91.9556C474.603 89.3619 473.491 83.9892 474.232 79.1722C474.973 74.3553 478.864 68.612 483.31 68.0562Z" fill="#FFA724"/>
<path d="M497.76 68.612C495.982 68.7603 495.907 69.7854 496.093 70.2794C497.266 78.6165 500.243 95.2534 502.763 95.1052C505.912 94.9199 510.729 88.4356 507.579 78.8017C504.43 69.1678 499.983 68.4268 497.76 68.612Z" fill="#FFA724"/>
<path d="M497.389 70.0942C493.388 72.1692 488.311 70.9588 486.273 70.0942C488.682 69.7236 489.794 67.6858 490.164 65.6478C490.535 63.6099 491.09 61.9425 492.017 60.6456C492.943 59.3487 495.722 59.9045 493.684 63.2393C492.054 65.9072 495.475 68.9208 497.389 70.0942Z" fill="#AAA500"/>
<path d="M488.128 69.3533C489.759 69.3533 490.413 70.0943 490.537 70.4649C490.908 75.4671 484.422 91.2147 484.607 91.9558C484.793 92.6969 484.979 98.9959 481.088 95.1053C477.197 91.2147 478.309 83.063 480.347 77.6903C482.385 72.3175 486.09 69.3533 488.128 69.3533Z" fill="#FF8C21"/>
<path d="M495.722 69.7237C493.499 69.1308 492.82 70.9588 492.758 71.9469C492.634 79.7281 492.61 95.4758 493.499 96.2168C494.611 97.1432 497.019 99.3664 501.095 97.3284C505.171 95.2905 504.986 87.5093 503.689 80.8397C502.392 74.1701 498.501 70.4647 495.722 69.7237Z" fill="#FF8C21"/>
<path d="M482.6 88.4355C482.156 81.0248 486.738 73.2436 489.085 70.2794C494.643 66.574 495.199 81.0248 496.31 88.065C497.422 95.1051 493.902 100.663 489.641 100.107C485.38 99.5515 483.156 97.6988 482.6 88.4355Z" fill="#FFA724"/>
<path fill-rule="evenodd" clip-rule="evenodd" d="M406.452 99.8501V93.1104H407.402V100.15L405.653 102.648L404.875 102.103L406.452 99.8501Z" fill="#FF8C21"/>
<path fill-rule="evenodd" clip-rule="evenodd" d="M403.602 99.5247H406.928V100.475H403.602V99.5247Z" fill="#FF8C21"/>
<path fill-rule="evenodd" clip-rule="evenodd" d="M408.232 102.213L406.569 100.313L407.284 99.687L408.947 101.588L408.232 102.213Z" fill="#FF8C21"/>
<path fill-rule="evenodd" clip-rule="evenodd" d="M413.581 101.276V94.5359H414.531V101.575L412.782 104.074L412.004 103.529L413.581 101.276Z" fill="#FF8C21"/>
<path fill-rule="evenodd" clip-rule="evenodd" d="M410.73 100.95H414.056V101.901H410.73V100.95Z" fill="#FF8C21"/>
<path fill-rule="evenodd" clip-rule="evenodd" d="M415.361 103.639L413.698 101.738L414.413 101.113L416.076 103.013L415.361 103.639Z" fill="#FF8C21"/>
<path d="M411.324 68.6256C411.704 70.7162 413.066 78.0491 413.7 81.4543C414.651 83.3548 415.204 82.4045 415.362 81.6918C415.6 80.2664 416.265 76.3228 417.025 71.9515C417.976 66.4874 415.6 63.6366 413.7 64.3493C411.799 65.062 410.849 66.0123 411.324 68.6256Z" fill="#622D35"/>
<path d="M416.326 65.4476C416.153 67.9286 415.577 76.6391 415.31 80.6843C415.839 83.1147 416.742 82.1972 417.127 81.4346C417.809 79.8867 419.704 75.6065 421.83 70.8687C424.488 64.9466 422.619 61.0263 420.258 61.2849C417.896 61.5435 416.543 62.3464 416.326 65.4476Z" fill="#622D35"/>
<path d="M423.259 64.433C422.263 66.3099 418.792 72.9112 417.181 75.9773C416.75 78.0583 417.774 77.655 418.339 77.1933C419.408 76.2212 422.373 73.5365 425.676 70.5749C429.806 66.8729 429.706 63.1636 427.773 62.5463C425.839 61.9291 424.504 62.0868 423.259 64.433Z" fill="#622D35"/>
<path d="M428.806 66.7972C427.001 68.5596 420.69 74.77 417.76 77.6548C416.522 79.8524 417.825 79.7663 418.631 79.4485C420.191 78.7356 424.513 76.771 429.319 74.6159C435.327 71.922 436.555 67.6915 434.591 66.2947C432.628 64.898 431.061 64.5941 428.806 66.7972Z" fill="#622D35"/>
<path d="M432.044 72.7821C429.748 73.8273 421.704 77.5265 417.969 79.2455C416.057 80.8921 417.312 81.2533 418.178 81.2281C419.888 81.0872 424.621 80.7065 429.873 80.3109C436.438 79.8164 439.029 76.2539 437.656 74.2735C436.284 72.2932 434.914 71.4756 432.044 72.7821Z" fill="#622D35"/>
<path d="M434.029 79.4485C431.507 79.4134 422.653 79.3239 418.542 79.2835C416.111 79.9565 417.091 80.8189 417.885 81.1659C419.491 81.7685 423.933 83.4448 428.852 85.3296C435 87.6856 438.863 85.5703 438.468 83.1934C438.072 80.8165 437.182 79.4923 434.029 79.4485Z" fill="#622D35"/>
<path d="M432.373 85.9876C430.001 85.1307 421.662 82.1545 417.789 80.7736C415.271 80.6156 415.916 81.7509 416.554 82.3382C417.875 83.4324 421.526 86.4675 425.559 89.8553C430.6 94.09 434.943 93.3526 435.345 90.9768C435.747 88.601 435.339 87.0588 432.373 85.9876Z" fill="#622D35"/>
<ellipse cx="413.579" cy="84.9099" rx="15.2044" ry="12.116" fill="#732C3E"/>
<path d="M409.774 60.9156C409.394 57.1145 404.785 56.4651 403.122 57.352C397.421 60.3929 399.638 64.3207 401.459 65.9044C404.786 66.8547 401.935 72.3188 399.559 77.3077C397.658 81.2989 400.034 82.1383 401.459 82.0591C402.98 84.9099 404.31 83.2469 404.785 82.0591C407.826 83.0094 407.953 81.0296 407.636 79.921C409.537 79.4458 409.062 78.0204 407.636 77.3077C406.211 76.595 406.448 73.9818 406.923 70.4182C407.399 66.8547 410.249 65.6669 409.774 60.9156Z" fill="#FF6479"/>
<path d="M399.801 60.9414C401.322 60.7514 401.86 61.6541 401.939 62.1293C401.179 66.1204 397.663 63.6339 396 61.8917C398.613 61.6541 397.901 61.179 399.801 60.9414Z" fill="#FF8C21"/>
<path d="M401.634 66.1261C401.409 67.6948 400.791 68.1354 400.511 68.1596C398.467 66.9133 400.609 63.6325 401.936 62.1479C401.499 64.8336 401.917 64.1652 401.634 66.1261Z" fill="#F13452"/>
<circle cx="404.792" cy="61.153" r="1.66298" fill="#D7D7D7"/>
<circle cx="405.5" cy="61.5" r="0.5" fill="#6D0A26"/>
<path d="M408.473 91.3888C404.862 83.5966 411.245 79.1144 414.887 77.8474C422.965 75.0379 428.983 87.1918 428.429 91.8639C429.759 94.3346 427.875 95.2691 426.766 95.4275C426.956 97.328 425.103 97.4864 424.153 97.328C424.343 99.9888 421.856 100.337 420.589 100.179C420.827 103.505 412.987 101.129 408.473 91.3888Z" fill="#A03954"/>
<path fill-rule="evenodd" clip-rule="evenodd" d="M29.4519 99.8501V93.1104H30.4021V100.15L28.6533 102.648L27.8748 102.103L29.4519 99.8501Z" fill="#FF8C21"/>
<path fill-rule="evenodd" clip-rule="evenodd" d="M26.6016 99.5247H29.9275V100.475H26.6016V99.5247Z" fill="#FF8C21"/>
<path fill-rule="evenodd" clip-rule="evenodd" d="M31.2323 102.213L29.5693 100.313L30.2845 99.687L31.9474 101.588L31.2323 102.213Z" fill="#FF8C21"/>
<path fill-rule="evenodd" clip-rule="evenodd" d="M36.5808 101.276V94.5359H37.5311V101.575L35.7822 104.074L35.0037 103.529L36.5808 101.276Z" fill="#FF8C21"/>
<path fill-rule="evenodd" clip-rule="evenodd" d="M33.7305 100.95H37.0564V101.901H33.7305V100.95Z" fill="#FF8C21"/>
<path fill-rule="evenodd" clip-rule="evenodd" d="M38.3612 103.639L36.6982 101.738L37.4134 101.113L39.0764 103.013L38.3612 103.639Z" fill="#FF8C21"/>
<path d="M34.3242 68.6256C34.7043 70.7162 36.0664 78.0491 36.6999 81.4543C37.6505 83.3548 38.2043 82.4045 38.3624 81.6918C38.6 80.2664 39.2652 76.3228 40.0254 71.9515C40.9757 66.4874 38.6004 63.6366 36.6999 64.3493C34.7993 65.062 33.8491 66.0123 34.3242 68.6256Z" fill="#622D35"/>
<path d="M39.3263 65.4476C39.1527 67.9286 38.5765 76.6391 38.3101 80.6843C38.8385 83.1147 39.7415 82.1972 40.1269 81.4346C40.8087 79.8867 42.7037 75.6065 44.8303 70.8687C47.4884 64.9466 45.6191 61.0263 43.2575 61.2849C40.8959 61.5435 39.5433 62.3464 39.3263 65.4476Z" fill="#622D35"/>
<path d="M46.2592 64.433C45.2631 66.3099 41.7919 72.9112 40.1807 75.9773C39.7503 78.0583 40.7736 77.655 41.3391 77.1933C42.4083 76.2212 45.3726 73.5365 48.6763 70.5749C52.806 66.8729 52.7063 63.1636 50.7726 62.5463C48.8389 61.9291 47.5043 62.0868 46.2592 64.433Z" fill="#622D35"/>
<path d="M51.8057 66.7972C50.001 68.5596 43.6902 74.77 40.7604 77.6548C39.5217 79.8524 40.8245 79.7663 41.6308 79.4485C43.1911 78.7356 47.5133 76.771 52.3194 74.6159C58.327 71.922 59.5546 67.6915 57.5911 66.2947C55.6276 64.898 54.0615 64.5941 51.8057 66.7972Z" fill="#622D35"/>
<path d="M55.0438 72.7821C52.748 73.8273 44.7038 77.5265 40.9686 79.2455C39.0574 80.8921 40.3122 81.2533 41.1784 81.2281C42.8881 81.0872 47.6206 80.7065 52.8728 80.3109C59.4382 79.8164 62.029 76.2539 60.6563 74.2735C59.2835 72.2932 57.9135 71.4756 55.0438 72.7821Z" fill="#622D35"/>
<path d="M57.0293 79.4485C54.507 79.4134 45.6534 79.3239 41.5419 79.2835C39.1106 79.9565 40.091 80.8189 40.8851 81.1659C42.4913 81.7685 46.9332 83.4448 51.8516 85.3296C57.9996 87.6856 61.8635 85.5703 61.4677 83.1934C61.0719 80.8165 60.1821 79.4923 57.0293 79.4485Z" fill="#622D35"/>
<path d="M55.3733 85.9876C53.0008 85.1307 44.662 82.1545 40.7891 80.7736C38.2714 80.6156 38.9163 81.7509 39.5535 82.3382C40.8748 83.4324 44.5257 86.4675 48.5588 89.8553C53.6002 94.09 57.9431 93.3526 58.3452 90.9768C58.7474 88.601 58.3389 87.0588 55.3733 85.9876Z" fill="#622D35"/>
<ellipse cx="36.5794" cy="84.9099" rx="15.2044" ry="12.116" fill="#732C3E"/>
<path d="M32.7743 60.9156C32.3942 57.1145 27.7854 56.4651 26.1224 57.352C20.4209 60.3929 22.6381 64.3207 24.4594 65.9044C27.7855 66.8547 24.9346 72.3188 22.5589 77.3077C20.6583 81.2989 23.034 82.1383 24.4594 82.0591C25.9799 84.9099 27.3102 83.2469 27.7854 82.0591C30.8262 83.0094 30.953 81.0296 30.6362 79.921C32.5367 79.4458 32.0616 78.0204 30.6362 77.3077C29.2108 76.595 29.4484 73.9818 29.9235 70.4182C30.3986 66.8547 33.2494 65.6669 32.7743 60.9156Z" fill="#FF6479"/>
<path d="M22.8011 60.9414C24.3215 60.7514 24.86 61.6541 24.9392 62.1293C24.179 66.1204 20.663 63.6339 19 61.8917C21.6133 61.6541 20.9005 61.179 22.8011 60.9414Z" fill="#FF8C21"/>
<path d="M24.6345 66.1261C24.4086 67.6948 23.7914 68.1354 23.5111 68.1596C21.4667 66.9133 23.6092 63.6325 24.9361 62.1479C24.4985 64.8336 24.9168 64.1652 24.6345 66.1261Z" fill="#F13452"/>
<circle cx="27.7919" cy="61.153" r="1.66298" fill="#D7D7D7"/>
<circle cx="28.5" cy="61.5" r="0.5" fill="#6D0A26"/>
<path d="M31.4731 91.3888C27.8621 83.5966 34.2448 79.1144 37.8875 77.8474C45.9649 75.0379 51.9832 87.1918 51.429 91.8639C52.7594 94.3346 50.8747 95.2691 49.766 95.4275C49.9561 97.328 48.1031 97.4864 47.1528 97.328C47.3428 99.9888 44.8563 100.337 43.5892 100.179C43.8268 103.505 35.9869 101.129 31.4731 91.3888Z" fill="#A03954"/>
<path d="M169.525 91.9847C171.397 91.2586 175.756 87.5885 177.702 85.8442C177.59 87.1595 173.41 91.3255 170.998 92.5794C168.586 93.8332 167.186 92.8923 169.525 91.9847Z" fill="#863C0F"/>
<path d="M176.325 87.4026C174.571 87.1429 170.753 85.9221 169.507 83.1169C168.26 80.3117 166.649 78.1818 166 77.4676C167.558 78.5065 170.87 79.9611 171.649 77.4676C172.429 74.974 171.584 71.8831 171.065 70.6494C172.364 71.1039 174.961 70.6104 174.961 65C175.675 66.8831 177.727 70.7662 180.221 71.2338C182.714 71.7013 184.377 67.2727 184.896 65C184.961 66.1688 185.675 68.5844 188.013 68.8961C190.033 69.1654 191.616 67.4187 192.386 66.1427C192.493 65.9334 192.595 65.7451 192.688 65.5844C192.609 65.7523 192.508 65.9417 192.386 66.1427C191.675 67.5405 190.783 69.8783 191.325 71.2338C191.948 72.7922 193.792 72.7922 194.636 72.5974C193.533 73.5065 191.325 75.9091 191.325 78.2468C191.325 80.5844 196.649 82.4676 199.312 83.1169C197.883 83.3767 194.792 84.1299 193.857 85.065C192.922 86 193.468 87.6624 193.857 88.3767C192.169 87.7923 188.481 87.2468 187.234 89.7403C185.987 92.2338 187.753 94.2858 188.792 95.0001C185.091 94.4156 177.416 92.078 176.325 87.4026Z" fill="#F25609"/>
<path d="M547.525 91.9847C549.397 91.2586 553.756 87.5885 555.702 85.8442C555.59 87.1595 551.41 91.3255 548.998 92.5794C546.586 93.8332 545.186 92.8923 547.525 91.9847Z" fill="#863C0F"/>
<path d="M554.325 87.4026C552.571 87.1429 548.753 85.9221 547.507 83.1169C546.26 80.3117 544.649 78.1818 544 77.4676C545.558 78.5065 548.87 79.9611 549.649 77.4676C550.429 74.974 549.584 71.8831 549.065 70.6494C550.364 71.1039 552.961 70.6104 552.961 65C553.675 66.8831 555.727 70.7662 558.221 71.2338C560.714 71.7013 562.377 67.2727 562.896 65C562.961 66.1688 563.675 68.5844 566.013 68.8961C568.033 69.1654 569.616 67.4187 570.386 66.1427C570.493 65.9334 570.595 65.7451 570.688 65.5844C570.609 65.7523 570.508 65.9417 570.386 66.1427C569.675 67.5405 568.783 69.8783 569.325 71.2338C569.948 72.7922 571.792 72.7922 572.636 72.5974C571.533 73.5065 569.325 75.9091 569.325 78.2468C569.325 80.5844 574.649 82.4676 577.312 83.1169C575.883 83.3767 572.792 84.1299 571.857 85.065C570.922 86 571.468 87.6624 571.857 88.3767C570.169 87.7923 566.481 87.2468 565.234 89.7403C563.987 92.2338 565.753 94.2858 566.792 95.0001C563.091 94.4156 555.416 92.078 554.325 87.4026Z" fill="#F25609"/>
<path d="M272.348 63.4474L270.852 66.4403H272.348L274.032 64.9438C274.406 65.1932 275.416 65.2431 276.463 63.4474C277.511 61.6517 275.279 61.9509 274.032 62.3251C274.281 61.8262 274.293 60.866 272.348 61.0157C270.403 61.1653 271.537 62.6992 272.348 63.4474Z" fill="#D4E2BE"/>
<path d="M281.887 73.0028L280.391 75.9957H281.887L283.571 74.4992C283.945 74.7486 284.955 74.7985 286.002 73.0028C287.05 71.2071 284.818 71.5064 283.571 71.8805C283.82 71.3817 283.832 70.4214 281.887 70.5711C279.942 70.7207 281.077 72.2546 281.887 73.0028Z" fill="#D4E2BE"/>
<path d="M269.057 66.5632C270.553 64.6178 272.424 65.3785 273.172 66.0021C273.421 66.7503 273.509 68.6209 271.862 70.1173C269.805 71.9879 270.74 77.4126 266.812 80.7796C262.884 84.1466 256.898 81.9019 254.653 76.8514C252.409 71.8008 259.143 68.2468 261.949 68.2468C264.754 68.2468 267.186 68.995 269.057 66.5632Z" fill="#C26C1E"/>
<path d="M244.109 77.1007C243.211 75.6042 246.229 71.7383 247.85 69.9925C246.354 67.7478 241.615 72.7983 239.432 75.6042C239.282 73.5092 238.497 73.983 238.123 74.4819C233.821 81.59 237.375 87.3888 244.109 87.7629C250.843 88.137 251.591 84.3959 250.469 81.403C249.347 78.41 245.231 78.9712 244.109 77.1007Z" fill="#C26C1E"/>
<path d="M248.769 72.613C251.313 72.9123 253.071 71.6154 253.633 70.9295C266.54 65.6919 275.892 74.2965 277.388 78.5988C278.885 82.9011 278.324 90.5705 259.431 94.6857C240.539 98.801 232.682 88.887 234.179 82.34C235.675 75.793 245.589 72.2389 248.769 72.613Z" fill="#EC8120"/>
<path d="M251.589 86.8277C250.692 85.3312 253.709 81.4654 255.331 79.7195C253.835 77.4748 249.095 82.5254 246.912 85.3312C246.763 83.2362 245.978 83.7101 245.604 84.2089C241.301 91.3171 244.855 97.1158 251.589 97.49C258.323 97.8641 259.072 94.1229 257.949 91.13C256.827 88.1371 252.712 88.6983 251.589 86.8277Z" fill="#C26C1E"/>
<path d="M278.033 75.9163C279.53 73.9709 281.4 74.7316 282.149 75.3551C282.398 76.1033 282.485 77.9739 280.839 79.4704C278.781 81.3409 279.717 86.7656 275.789 90.1326C271.86 93.4996 265.875 91.255 263.63 86.2044C261.385 81.1539 268.119 77.5998 270.925 77.5998C273.731 77.5998 276.163 78.348 278.033 75.9163Z" fill="#C26C1E"/>
<path d="M650.348 63.4474L648.852 66.4403H650.348L652.032 64.9438C652.406 65.1932 653.416 65.2431 654.463 63.4474C655.511 61.6517 653.279 61.9509 652.032 62.3251C652.281 61.8262 652.293 60.866 650.348 61.0157C648.403 61.1653 649.537 62.6992 650.348 63.4474Z" fill="#D4E2BE"/>
<path d="M659.887 73.0028L658.391 75.9957H659.887L661.571 74.4992C661.945 74.7486 662.955 74.7985 664.002 73.0028C665.05 71.2071 662.818 71.5064 661.571 71.8805C661.82 71.3817 661.832 70.4214 659.887 70.5711C657.942 70.7207 659.077 72.2546 659.887 73.0028Z" fill="#D4E2BE"/>
<path d="M647.057 66.5632C648.553 64.6178 650.424 65.3785 651.172 66.0021C651.421 66.7503 651.509 68.6209 649.862 70.1173C647.805 71.9879 648.74 77.4126 644.812 80.7796C640.884 84.1466 634.898 81.9019 632.653 76.8514C630.409 71.8008 637.143 68.2468 639.949 68.2468C642.754 68.2468 645.186 68.995 647.057 66.5632Z" fill="#C26C1E"/>
<path d="M622.109 77.1007C621.211 75.6042 624.229 71.7383 625.85 69.9925C624.354 67.7478 619.615 72.7983 617.432 75.6042C617.282 73.5092 616.497 73.983 616.123 74.4819C611.821 81.59 615.375 87.3888 622.109 87.7629C628.843 88.137 629.591 84.3959 628.469 81.403C627.347 78.41 623.231 78.9712 622.109 77.1007Z" fill="#C26C1E"/>
<path d="M626.769 72.613C629.313 72.9123 631.071 71.6154 631.633 70.9295C644.54 65.6919 653.892 74.2965 655.388 78.5988C656.885 82.9011 656.324 90.5705 637.431 94.6857C618.539 98.801 610.682 88.887 612.179 82.34C613.675 75.793 623.589 72.2389 626.769 72.613Z" fill="#EC8120"/>
<path d="M629.589 86.8277C628.692 85.3312 631.709 81.4654 633.331 79.7195C631.835 77.4748 627.095 82.5254 624.912 85.3312C624.763 83.2362 623.978 83.7101 623.604 84.2089C619.301 91.3171 622.855 97.1158 629.589 97.49C636.323 97.8641 637.072 94.1229 635.949 91.13C634.827 88.1371 630.712 88.6983 629.589 86.8277Z" fill="#C26C1E"/>
<path d="M656.033 75.9163C657.53 73.9709 659.4 74.7316 660.149 75.3551C660.398 76.1033 660.485 77.9739 658.839 79.4704C656.781 81.3409 657.717 86.7656 653.789 90.1326C649.86 93.4996 643.875 91.255 641.63 86.2044C639.385 81.1539 646.119 77.5998 648.925 77.5998C651.731 77.5998 654.163 78.348 656.033 75.9163Z" fill="#C26C1E"/>
<ellipse cx="117.904" cy="35.5945" rx="18.0902" ry="10.9396" transform="rotate(-11.4699 117.904 35.5945)" fill="#3E4C57"/>
<path d="M106.766 37.4324L105.219 16.8073C108.656 10.8948 118.637 12.3107 122.876 13.0555L128.422 31.2449C129.453 33.3074 125.427 37.4324 122.234 38.6355C112.747 42.2105 107.969 39.323 106.766 37.4324Z" fill="#1E272E"/>
<path d="M106.597 37.6063L106.25 32.6579C116.819 37.3274 126.522 28.1617 127.215 26.4324L128.428 31.3806C129.467 33.4558 125.409 37.6063 122.19 38.8168C112.626 42.4139 107.809 39.5086 106.597 37.6063Z" fill="#C2863F"/>
<path fill-rule="evenodd" clip-rule="evenodd" d="M124.328 28.2712L126.784 37.4808L126.484 37.7621L126.013 37.2605C126.484 37.7621 126.484 37.7622 126.483 37.7624L126.482 37.7638L126.479 37.7666L126.47 37.7748C126.463 37.7814 126.453 37.7905 126.44 37.8018C126.415 37.8244 126.379 37.856 126.333 37.8954C126.24 37.9742 126.106 38.0842 125.933 38.216C125.586 38.4793 125.082 38.8305 124.438 39.192C123.152 39.914 121.294 40.6859 119.021 40.8677L118.369 40.9199L117.152 31.5886H117.935C119.205 31.5886 120.577 30.9808 121.684 30.3126C122.226 29.985 122.683 29.6567 123.003 29.4105C123.163 29.2877 123.288 29.186 123.372 29.116C123.414 29.081 123.446 29.0539 123.467 29.0362C123.477 29.0273 123.485 29.0208 123.489 29.0167L123.494 29.0123L124.328 28.2712ZM123.556 30.7143C123.239 30.9468 122.844 31.218 122.394 31.4897C121.408 32.0853 120.09 32.7239 118.711 32.91L119.561 39.426C121.293 39.1852 122.729 38.5748 123.765 37.993C124.345 37.6671 124.797 37.3523 125.101 37.1214C125.15 37.0839 125.195 37.0486 125.237 37.0159L123.556 30.7143Z" fill="#E6C330"/>
<ellipse cx="114.067" cy="15.1858" rx="9.07875" ry="5.49014" transform="rotate(-11.4699 114.067 15.1858)" fill="#3E4C57"/>
<ellipse cx="495.904" cy="35.5945" rx="18.0902" ry="10.9396" transform="rotate(-11.4699 495.904 35.5945)" fill="#3E4C57"/>
<path d="M484.766 37.4324L483.219 16.8073C486.656 10.8948 496.637 12.3107 500.876 13.0555L506.422 31.2449C507.453 33.3074 503.427 37.4324 500.234 38.6355C490.747 42.2105 485.969 39.323 484.766 37.4324Z" fill="#1E272E"/>
<path d="M484.597 37.6063L484.25 32.6579C494.819 37.3274 504.522 28.1617 505.215 26.4324L506.428 31.3806C507.467 33.4558 503.409 37.6063 500.19 38.8168C490.626 42.4139 485.809 39.5086 484.597 37.6063Z" fill="#C2863F"/>
<path fill-rule="evenodd" clip-rule="evenodd" d="M502.328 28.2712L504.784 37.4808L504.484 37.7621L504.013 37.2605C504.484 37.7621 504.484 37.7622 504.483 37.7624L504.482 37.7638L504.479 37.7666L504.47 37.7748C504.463 37.7814 504.453 37.7905 504.44 37.8018C504.415 37.8244 504.379 37.856 504.333 37.8954C504.24 37.9742 504.106 38.0842 503.933 38.216C503.586 38.4793 503.082 38.8305 502.438 39.192C501.152 39.914 499.294 40.6859 497.021 40.8677L496.369 40.9199L495.152 31.5886H495.935C497.205 31.5886 498.577 30.9808 499.684 30.3126C500.226 29.985 500.683 29.6567 501.003 29.4105C501.163 29.2877 501.288 29.186 501.372 29.116C501.414 29.081 501.446 29.0539 501.467 29.0362C501.477 29.0273 501.485 29.0208 501.489 29.0167L501.494 29.0123L502.328 28.2712ZM501.556 30.7143C501.239 30.9468 500.844 31.218 500.394 31.4897C499.408 32.0853 498.09 32.7239 496.711 32.91L497.561 39.426C499.293 39.1852 500.729 38.5748 501.765 37.993C502.345 37.6671 502.797 37.3523 503.101 37.1214C503.15 37.0839 503.195 37.0486 503.237 37.0159L501.556 30.7143Z" fill="#E6C330"/>
<ellipse cx="492.067" cy="15.1858" rx="9.07875" ry="5.49014" transform="rotate(-11.4699 492.067 15.1858)" fill="#3E4C57"/>
<path d="M643.497 10.3889C641.273 10.3889 640.224 11.9946 639.977 12.7974C643.83 14.7242 646.152 13.3532 646.831 12.4268C646.646 11.7475 645.72 10.3889 643.497 10.3889Z" fill="#FF8C21"/>
<path d="M651.651 10.7593C649.724 10.0182 648.378 11.0681 647.945 11.6856C648.983 13.9088 652.33 14.0941 653.874 13.9088C653.936 13.1678 653.577 11.5003 651.651 10.7593Z" fill="#FF8C21"/>
<path d="M638.31 12.0562C641.867 11.6116 642.757 13.3531 642.757 14.2794C634.791 23.728 636.457 33.5472 636.086 34.6588C635.716 35.7704 633.308 38.5494 631.455 35.9556C629.603 33.3619 628.491 27.9892 629.232 23.1722C629.973 18.3553 633.864 12.612 638.31 12.0562Z" fill="#FFA724"/>
<path d="M652.76 12.612C650.982 12.7603 650.907 13.7854 651.093 14.2794C652.266 22.6165 655.243 39.2534 657.763 39.1052C660.912 38.9199 665.729 32.4356 662.579 22.8017C659.43 13.1678 654.983 12.4268 652.76 12.612Z" fill="#FFA724"/>
<path d="M652.389 14.0942C648.388 16.1692 643.311 14.9588 641.273 14.0942C643.682 13.7236 644.794 11.6858 645.164 9.64783C645.535 7.60989 646.09 5.94246 647.017 4.64559C647.943 3.34872 650.722 3.90452 648.684 7.23932C647.054 9.90716 650.475 12.9208 652.389 14.0942Z" fill="#AAA500"/>
<path d="M643.128 13.3533C644.759 13.3533 645.413 14.0943 645.537 14.4649C645.908 19.4671 639.422 35.2147 639.607 35.9558C639.793 36.6969 639.979 42.9959 636.088 39.1053C632.197 35.2147 633.309 27.063 635.347 21.6903C637.385 16.3175 641.09 13.3533 643.128 13.3533Z" fill="#FF8C21"/>
<path d="M650.722 13.7237C648.499 13.1308 647.82 14.9588 647.758 15.9469C647.634 23.7281 647.61 39.4758 648.499 40.2168C649.611 41.1432 652.019 43.3664 656.095 41.3284C660.171 39.2905 659.986 31.5093 658.689 24.8397C657.392 18.1701 653.501 14.4647 650.722 13.7237Z" fill="#FF8C21"/>
<path d="M637.6 32.4355C637.156 25.0248 641.738 17.2436 644.085 14.2794C649.643 10.574 650.199 25.0248 651.31 32.065C652.422 39.1051 648.902 44.6631 644.641 44.1073C640.38 43.5515 638.156 41.6988 637.6 32.4355Z" fill="#FFA724"/>
<path d="M265.497 10.3889C263.273 10.3889 262.224 11.9946 261.977 12.7974C265.83 14.7242 268.152 13.3532 268.831 12.4268C268.646 11.7475 267.72 10.3889 265.497 10.3889Z" fill="#FF8C21"/>
<path d="M273.651 10.7593C271.724 10.0182 270.378 11.0681 269.945 11.6856C270.983 13.9088 274.33 14.0941 275.874 13.9088C275.936 13.1678 275.577 11.5003 273.651 10.7593Z" fill="#FF8C21"/>
<path d="M260.31 12.0562C263.867 11.6116 264.757 13.3531 264.757 14.2794C256.791 23.728 258.457 33.5472 258.086 34.6588C257.716 35.7704 255.308 38.5494 253.455 35.9556C251.603 33.3619 250.491 27.9892 251.232 23.1722C251.973 18.3553 255.864 12.612 260.31 12.0562Z" fill="#FFA724"/>
<path d="M274.76 12.612C272.982 12.7603 272.907 13.7854 273.093 14.2794C274.266 22.6165 277.243 39.2534 279.763 39.1052C282.912 38.9199 287.729 32.4356 284.579 22.8017C281.43 13.1678 276.983 12.4268 274.76 12.612Z" fill="#FFA724"/>
<path d="M274.389 14.0942C270.388 16.1692 265.311 14.9588 263.273 14.0942C265.682 13.7236 266.794 11.6858 267.164 9.64783C267.535 7.60989 268.09 5.94246 269.017 4.64559C269.943 3.34872 272.722 3.90452 270.684 7.23932C269.054 9.90716 272.475 12.9208 274.389 14.0942Z" fill="#AAA500"/>
<path d="M265.128 13.3533C266.759 13.3533 267.413 14.0943 267.537 14.4649C267.908 19.4671 261.422 35.2147 261.607 35.9558C261.793 36.6969 261.979 42.9959 258.088 39.1053C254.197 35.2147 255.309 27.063 257.347 21.6903C259.385 16.3175 263.09 13.3533 265.128 13.3533Z" fill="#FF8C21"/>
<path d="M272.722 13.7237C270.499 13.1308 269.82 14.9588 269.758 15.9469C269.634 23.7281 269.61 39.4758 270.499 40.2168C271.611 41.1432 274.019 43.3664 278.095 41.3284C282.171 39.2905 281.986 31.5093 280.689 24.8397C279.392 18.1701 275.501 14.4647 272.722 13.7237Z" fill="#FF8C21"/>
<path d="M259.6 32.4355C259.156 25.0248 263.738 17.2436 266.085 14.2794C271.643 10.574 272.199 25.0248 273.31 32.065C274.422 39.1051 270.902 44.6631 266.641 44.1073C262.38 43.5515 260.156 41.6988 259.6 32.4355Z" fill="#FFA724"/>
<path fill-rule="evenodd" clip-rule="evenodd" d="M561.452 43.8501V37.1104H562.402V44.1496L560.653 46.648L559.875 46.103L561.452 43.8501Z" fill="#FFAD59"/>
<path fill-rule="evenodd" clip-rule="evenodd" d="M558.602 43.5247H561.928V44.475H558.602V43.5247Z" fill="#FFAD59"/>
<path fill-rule="evenodd" clip-rule="evenodd" d="M563.232 46.2133L561.569 44.3127L562.284 43.687L563.947 45.5875L563.232 46.2133Z" fill="#FFAD59"/>
<path fill-rule="evenodd" clip-rule="evenodd" d="M568.581 45.2756V38.5359H569.531V45.5751L567.782 48.0735L567.004 47.5286L568.581 45.2756Z" fill="#FFAD59"/>
<path fill-rule="evenodd" clip-rule="evenodd" d="M565.73 44.9502H569.056V45.9005H565.73V44.9502Z" fill="#FFAD59"/>
<path fill-rule="evenodd" clip-rule="evenodd" d="M570.361 47.6388L568.698 45.7383L569.413 45.1125L571.076 47.0131L570.361 47.6388Z" fill="#FFAD59"/>
<path d="M566.324 12.6256C566.704 14.7162 568.066 22.0491 568.7 25.4543C569.651 27.3548 570.204 26.4045 570.362 25.6918C570.6 24.2664 571.265 20.3228 572.025 15.9515C572.976 10.4874 570.6 7.63663 568.7 8.34933C566.799 9.06204 565.849 10.0123 566.324 12.6256Z" fill="#622D35"/>
<path d="M571.326 9.44763C571.153 11.9286 570.577 20.6391 570.31 24.6843C570.839 27.1147 571.742 26.1972 572.127 25.4346C572.809 23.8867 574.704 19.6065 576.83 14.8687C579.488 8.94657 577.619 5.02634 575.258 5.28493C572.896 5.54353 571.543 6.34642 571.326 9.44763Z" fill="#622D35"/>
<path d="M578.259 8.43295C577.263 10.3099 573.792 16.9112 572.181 19.9773C571.75 22.0583 572.774 21.655 573.339 21.1933C574.408 20.2212 577.373 17.5365 580.676 14.5749C584.806 10.8729 584.706 7.16355 582.773 6.5463C580.839 5.92905 579.504 6.08678 578.259 8.43295Z" fill="#622D35"/>
<path d="M583.806 10.7972C582.001 12.5596 575.69 18.77 572.76 21.6548C571.522 23.8524 572.825 23.7663 573.631 23.4485C575.191 22.7356 579.513 20.771 584.319 18.6159C590.327 15.922 591.555 11.6915 589.591 10.2947C587.628 8.898 586.061 8.59407 583.806 10.7972Z" fill="#622D35"/>
<path d="M587.044 16.7821C584.748 17.8273 576.704 21.5265 572.969 23.2455C571.057 24.8921 572.312 25.2533 573.178 25.2281C574.888 25.0872 579.621 24.7065 584.873 24.3109C591.438 23.8164 594.029 20.2539 592.656 18.2735C591.284 16.2932 589.914 15.4756 587.044 16.7821Z" fill="#622D35"/>
<path d="M589.029 23.4485C586.507 23.4134 577.653 23.3239 573.542 23.2835C571.111 23.9565 572.091 24.8189 572.885 25.1659C574.491 25.7685 578.933 27.4448 583.852 29.3296C590 31.6856 593.863 29.5703 593.468 27.1934C593.072 24.8165 592.182 23.4923 589.029 23.4485Z" fill="#622D35"/>
<path d="M587.373 29.9876C585.001 29.1307 576.662 26.1545 572.789 24.7736C570.271 24.6156 570.916 25.7509 571.554 26.3382C572.875 27.4324 576.526 30.4675 580.559 33.8553C585.6 38.09 589.943 37.3526 590.345 34.9768C590.747 32.601 590.339 31.0588 587.373 29.9876Z" fill="#622D35"/>
<ellipse cx="568.579" cy="28.9099" rx="15.2044" ry="12.116" fill="#732C3E"/>
<path d="M564.774 4.91555C564.394 1.11446 559.785 0.465066 558.122 1.35202C552.421 4.39295 554.638 8.32068 556.459 9.90444C559.786 10.8547 556.935 16.3188 554.559 21.3077C552.658 25.2989 555.034 26.1383 556.459 26.0591C557.98 28.9099 559.31 27.2469 559.785 26.0591C562.826 27.0094 562.953 25.0296 562.636 23.921C564.537 23.4458 564.062 22.0204 562.636 21.3077C561.211 20.595 561.448 17.9818 561.923 14.4182C562.399 10.8547 565.249 9.66692 564.774 4.91555Z" fill="#FF6479"/>
<path d="M554.801 4.94142C556.322 4.75137 556.86 5.65413 556.939 6.12926C556.179 10.1204 552.663 7.63385 551 5.89167C553.613 5.65408 552.901 5.17899 554.801 4.94142Z" fill="#FFAD59"/>
<path d="M556.634 10.1261C556.409 11.6948 555.791 12.1354 555.511 12.1596C553.467 10.9133 555.609 7.63251 556.936 6.14793C556.499 8.83363 556.917 8.16518 556.634 10.1261Z" fill="#F13452"/>
<circle cx="559.792" cy="5.15297" r="1.66298" fill="#6D0A26"/>
<path d="M563.473 35.3888C559.862 27.5966 566.245 23.1144 569.887 21.8474C577.965 19.0379 583.983 31.1918 583.429 35.8639C584.759 38.3346 582.875 39.2691 581.766 39.4275C581.956 41.328 580.103 41.4864 579.153 41.328C579.343 43.9888 576.856 44.3372 575.589 44.1788C575.827 47.5048 567.987 45.1291 563.473 35.3888Z" fill="#A03954"/>
<path fill-rule="evenodd" clip-rule="evenodd" d="M183.452 43.8501V37.1104H184.402V44.1496L182.653 46.648L181.875 46.103L183.452 43.8501Z" fill="#FF8C21"/>
<path fill-rule="evenodd" clip-rule="evenodd" d="M180.602 43.5247H183.928V44.475H180.602V43.5247Z" fill="#FF8C21"/>
<path fill-rule="evenodd" clip-rule="evenodd" d="M185.232 46.2133L183.569 44.3127L184.284 43.687L185.947 45.5875L185.232 46.2133Z" fill="#FF8C21"/>
<path fill-rule="evenodd" clip-rule="evenodd" d="M190.581 45.2756V38.5359H191.531V45.5751L189.782 48.0735L189.004 47.5286L190.581 45.2756Z" fill="#FF8C21"/>
<path fill-rule="evenodd" clip-rule="evenodd" d="M187.73 44.9502H191.056V45.9005H187.73V44.9502Z" fill="#FF8C21"/>
<path fill-rule="evenodd" clip-rule="evenodd" d="M192.361 47.6388L190.698 45.7383L191.413 45.1125L193.076 47.0131L192.361 47.6388Z" fill="#FF8C21"/>
<path d="M188.324 12.6256C188.704 14.7162 190.066 22.0491 190.7 25.4543C191.651 27.3548 192.204 26.4045 192.362 25.6918C192.6 24.2664 193.265 20.3228 194.025 15.9515C194.976 10.4874 192.6 7.63663 190.7 8.34933C188.799 9.06204 187.849 10.0123 188.324 12.6256Z" fill="#622D35"/>
<path d="M193.326 9.44763C193.153 11.9286 192.577 20.6391 192.31 24.6843C192.839 27.1147 193.742 26.1972 194.127 25.4346C194.809 23.8867 196.704 19.6065 198.83 14.8687C201.488 8.94657 199.619 5.02634 197.258 5.28493C194.896 5.54353 193.543 6.34642 193.326 9.44763Z" fill="#622D35"/>
<path d="M200.259 8.43295C199.263 10.3099 195.792 16.9112 194.181 19.9773C193.75 22.0583 194.774 21.655 195.339 21.1933C196.408 20.2212 199.373 17.5365 202.676 14.5749C206.806 10.8729 206.706 7.16355 204.773 6.5463C202.839 5.92905 201.504 6.08678 200.259 8.43295Z" fill="#622D35"/>
<path d="M205.806 10.7972C204.001 12.5596 197.69 18.77 194.76 21.6548C193.522 23.8524 194.825 23.7663 195.631 23.4485C197.191 22.7356 201.513 20.771 206.319 18.6159C212.327 15.922 213.555 11.6915 211.591 10.2947C209.628 8.898 208.061 8.59407 205.806 10.7972Z" fill="#622D35"/>
<path d="M209.044 16.7821C206.748 17.8273 198.704 21.5265 194.969 23.2455C193.057 24.8921 194.312 25.2533 195.178 25.2281C196.888 25.0872 201.621 24.7065 206.873 24.3109C213.438 23.8164 216.029 20.2539 214.656 18.2735C213.284 16.2932 211.914 15.4756 209.044 16.7821Z" fill="#622D35"/>
<path d="M211.029 23.4485C208.507 23.4134 199.653 23.3239 195.542 23.2835C193.111 23.9565 194.091 24.8189 194.885 25.1659C196.491 25.7685 200.933 27.4448 205.852 29.3296C212 31.6856 215.863 29.5703 215.468 27.1934C215.072 24.8165 214.182 23.4923 211.029 23.4485Z" fill="#622D35"/>
<path d="M209.373 29.9876C207.001 29.1307 198.662 26.1545 194.789 24.7736C192.271 24.6156 192.916 25.7509 193.554 26.3382C194.875 27.4324 198.526 30.4675 202.559 33.8553C207.6 38.09 211.943 37.3526 212.345 34.9768C212.747 32.601 212.339 31.0588 209.373 29.9876Z" fill="#622D35"/>
<ellipse cx="190.579" cy="28.9099" rx="15.2044" ry="12.116" fill="#732C3E"/>
<path d="M186.774 4.91555C186.394 1.11446 181.785 0.465066 180.122 1.35202C174.421 4.39295 176.638 8.32068 178.459 9.90444C181.786 10.8547 178.935 16.3188 176.559 21.3077C174.658 25.2989 177.034 26.1383 178.459 26.0591C179.98 28.9099 181.31 27.2469 181.785 26.0591C184.826 27.0094 184.953 25.0296 184.636 23.921C186.537 23.4458 186.062 22.0204 184.636 21.3077C183.211 20.595 183.448 17.9818 183.923 14.4182C184.399 10.8547 187.249 9.66692 186.774 4.91555Z" fill="#FF6479"/>
<path d="M176.801 4.94142C178.322 4.75137 178.86 5.65413 178.939 6.12926C178.179 10.1204 174.663 7.63385 173 5.89167C175.613 5.65408 174.901 5.17899 176.801 4.94142Z" fill="#FF8C21"/>
<path d="M178.634 10.1261C178.409 11.6948 177.791 12.1354 177.511 12.1596C175.467 10.9133 177.609 7.63251 178.936 6.14793C178.499 8.83363 178.917 8.16518 178.634 10.1261Z" fill="#F13452"/>
<circle cx="181.792" cy="5.15297" r="1.66298" fill="#D7D7D7"/>
<circle cx="182.5" cy="5.5" r="0.5" fill="#6D0A26"/>
<path d="M185.473 35.3888C181.862 27.5966 188.245 23.1144 191.887 21.8474C199.965 19.0379 205.983 31.1918 205.429 35.8639C206.759 38.3346 204.875 39.2691 203.766 39.4275C203.956 41.328 202.103 41.4864 201.153 41.328C201.343 43.9888 198.856 44.3372 197.589 44.1788C197.827 47.5048 189.987 45.1291 185.473 35.3888Z" fill="#A03954"/>
<path d="M702.525 35.9847C704.397 35.2586 708.756 31.5885 710.702 29.8442C710.59 31.1595 706.41 35.3255 703.998 36.5794C701.586 37.8332 700.186 36.8923 702.525 35.9847Z" fill="#863C0F"/>
<path d="M709.325 31.4026C707.571 31.1429 703.753 29.9221 702.507 27.1169C701.26 24.3117 699.649 22.1818 699 21.4676C700.558 22.5065 703.87 23.9611 704.649 21.4676C705.429 18.974 704.584 15.8831 704.065 14.6494C705.364 15.1039 707.961 14.6104 707.961 9C708.675 10.8831 710.727 14.7662 713.221 15.2338C715.714 15.7013 717.377 11.2727 717.896 9C717.961 10.1688 718.675 12.5844 721.013 12.8961C723.033 13.1654 724.616 11.4187 725.386 10.1427C725.493 9.93339 725.595 9.74513 725.688 9.58442C725.609 9.75235 725.508 9.9417 725.386 10.1427C724.675 11.5405 723.783 13.8783 724.325 15.2338C724.948 16.7922 726.792 16.7922 727.636 16.5974C726.533 17.5065 724.325 19.9091 724.325 22.2468C724.325 24.5844 729.649 26.4676 732.312 27.1169C730.883 27.3767 727.792 28.1299 726.857 29.065C725.922 30 726.468 31.6624 726.857 32.3767C725.169 31.7923 721.481 31.2468 720.234 33.7403C718.987 36.2338 720.753 38.2858 721.792 39.0001C718.091 38.4156 710.416 36.078 709.325 31.4026Z" fill="#F25609"/>
<path d="M324.525 35.9847C326.397 35.2586 330.756 31.5885 332.702 29.8442C332.59 31.1595 328.41 35.3255 325.998 36.5794C323.586 37.8332 322.186 36.8923 324.525 35.9847Z" fill="#863C0F"/>
<path d="M331.325 31.4026C329.571 31.1429 325.753 29.9221 324.507 27.1169C323.26 24.3117 321.649 22.1818 321 21.4676C322.558 22.5065 325.87 23.9611 326.649 21.4676C327.429 18.974 326.584 15.8831 326.065 14.6494C327.364 15.1039 329.961 14.6104 329.961 9C330.675 10.8831 332.727 14.7662 335.221 15.2338C337.714 15.7013 339.377 11.2727 339.896 9C339.961 10.1688 340.675 12.5844 343.013 12.8961C345.033 13.1654 346.616 11.4187 347.386 10.1427C347.493 9.93339 347.595 9.74513 347.688 9.58442C347.609 9.75235 347.508 9.9417 347.386 10.1427C346.675 11.5405 345.783 13.8783 346.325 15.2338C346.948 16.7922 348.792 16.7922 349.636 16.5974C348.533 17.5065 346.325 19.9091 346.325 22.2468C346.325 24.5844 351.649 26.4676 354.312 27.1169C352.883 27.3767 349.792 28.1299 348.857 29.065C347.922 30 348.468 31.6624 348.857 32.3767C347.169 31.7923 343.481 31.2468 342.234 33.7403C340.987 36.2338 342.753 38.2858 343.792 39.0001C340.091 38.4156 332.416 36.078 331.325 31.4026Z" fill="#F25609"/>
<path d="M49.348 7.44739L47.8516 10.4403H49.348L51.0315 8.94382C51.4056 9.19323 52.4158 9.24312 53.4633 7.44739C54.5108 5.65167 52.2786 5.95095 51.0315 6.32505C51.2809 5.82623 51.2934 4.86601 49.348 5.01565C47.4026 5.1653 48.5374 6.69917 49.348 7.44739Z" fill="#D4E2BE"/>
<path d="M58.8871 17.0028L57.3906 19.9957H58.8871L60.5706 18.4992C60.9447 18.7486 61.9548 18.7985 63.0023 17.0028C64.0499 15.2071 61.8176 15.5064 60.5706 15.8805C60.82 15.3817 60.8325 14.4214 58.8871 14.5711C56.9417 14.7207 58.0765 16.2546 58.8871 17.0028Z" fill="#D4E2BE"/>
<path d="M46.0568 10.5632C47.5532 8.61784 49.4238 9.37854 50.172 10.0021C50.4214 10.7503 50.5086 12.6209 48.8625 14.1173C46.8049 15.9879 47.7401 21.4126 43.8119 24.7796C39.8837 28.1466 33.8981 25.9019 31.6534 20.8514C29.4087 15.8008 36.1428 12.2468 38.9486 12.2468C41.7545 12.2468 44.1862 12.995 46.0568 10.5632Z" fill="#C26C1E"/>
<path d="M21.1089 21.1007C20.211 19.6042 23.2289 15.7383 24.85 13.9925C23.354 11.7478 18.6146 16.7983 16.4319 19.6042C16.2823 17.5092 15.4971 17.983 15.1232 18.4819C10.8209 25.59 14.375 31.3888 21.1089 31.7629C27.8428 32.137 28.5913 28.3959 27.469 25.403C26.3467 22.41 22.2312 22.9712 21.1089 21.1007Z" fill="#C26C1E"/>
<path d="M25.7692 16.613C28.3132 16.9123 30.0715 15.6154 30.6327 14.9295C43.54 9.69188 52.892 18.2965 54.3885 22.5988C55.8849 26.9011 55.3242 34.5705 36.4314 38.6857C17.5387 42.801 9.68227 32.887 11.1787 26.34C12.6752 19.793 22.5892 16.2389 25.7692 16.613Z" fill="#EC8120"/>
<path d="M28.5894 30.8277C27.6915 29.3312 30.7094 25.4654 32.3305 23.7195C30.8345 21.4748 26.0951 26.5254 23.9124 29.3312C23.7627 27.2362 22.9776 27.7101 22.6037 28.2089C18.3014 35.3171 21.8555 41.1158 28.5894 41.49C35.3233 41.8641 36.0718 38.1229 34.9495 35.13C33.8271 32.1371 29.7117 32.6983 28.5894 30.8277Z" fill="#C26C1E"/>
<path d="M55.0333 19.9163C56.5298 17.9709 58.4004 18.7316 59.1486 19.3551C59.398 20.1033 59.4851 21.9739 57.839 23.4704C55.7814 25.3409 56.7167 30.7656 52.7885 34.1326C48.8603 37.4996 42.8746 35.255 40.6299 30.2044C38.3853 25.1539 45.1193 21.5998 47.9252 21.5998C50.731 21.5998 53.1628 22.348 55.0333 19.9163Z" fill="#C26C1E"/>
<path d="M427.348 7.44739L425.852 10.4403H427.348L429.032 8.94382C429.406 9.19323 430.416 9.24312 431.463 7.44739C432.511 5.65167 430.279 5.95095 429.032 6.32505C429.281 5.82623 429.293 4.86601 427.348 5.01565C425.403 5.1653 426.537 6.69917 427.348 7.44739Z" fill="#D4E2BE"/>
<path d="M436.887 17.0028L435.391 19.9957H436.887L438.571 18.4992C438.945 18.7486 439.955 18.7985 441.002 17.0028C442.05 15.2071 439.818 15.5064 438.571 15.8805C438.82 15.3817 438.832 14.4214 436.887 14.5711C434.942 14.7207 436.077 16.2546 436.887 17.0028Z" fill="#D4E2BE"/>
<path d="M424.057 10.5632C425.553 8.61784 427.424 9.37854 428.172 10.0021C428.421 10.7503 428.509 12.6209 426.862 14.1173C424.805 15.9879 425.74 21.4126 421.812 24.7796C417.884 28.1466 411.898 25.9019 409.653 20.8514C407.409 15.8008 414.143 12.2468 416.949 12.2468C419.754 12.2468 422.186 12.995 424.057 10.5632Z" fill="#C26C1E"/>
<path d="M399.109 21.1007C398.211 19.6042 401.229 15.7383 402.85 13.9925C401.354 11.7478 396.615 16.7983 394.432 19.6042C394.282 17.5092 393.497 17.983 393.123 18.4819C388.821 25.59 392.375 31.3888 399.109 31.7629C405.843 32.137 406.591 28.3959 405.469 25.403C404.347 22.41 400.231 22.9712 399.109 21.1007Z" fill="#C26C1E"/>
<path d="M403.769 16.613C406.313 16.9123 408.071 15.6154 408.633 14.9295C421.54 9.69188 430.892 18.2965 432.388 22.5988C433.885 26.9011 433.324 34.5705 414.431 38.6857C395.539 42.801 387.682 32.887 389.179 26.34C390.675 19.793 400.589 16.2389 403.769 16.613Z" fill="#EC8120"/>
<path d="M406.589 30.8277C405.692 29.3312 408.709 25.4654 410.331 23.7195C408.835 21.4748 404.095 26.5254 401.912 29.3312C401.763 27.2362 400.978 27.7101 400.604 28.2089C396.301 35.3171 399.855 41.1158 406.589 41.49C413.323 41.8641 414.072 38.1229 412.949 35.13C411.827 32.1371 407.712 32.6983 406.589 30.8277Z" fill="#C26C1E"/>
<path d="M433.033 19.9163C434.53 17.9709 436.4 18.7316 437.149 19.3551C437.398 20.1033 437.485 21.9739 435.839 23.4704C433.781 25.3409 434.717 30.7656 430.789 34.1326C426.86 37.4996 420.875 35.255 418.63 30.2044C416.385 25.1539 423.119 21.5998 425.925 21.5998C428.731 21.5998 431.163 22.348 433.033 19.9163Z" fill="#C26C1E"/>
</g>
</svg>
