<svg width="221" height="123" viewBox="0 0 221 123" fill="none" xmlns="http://www.w3.org/2000/svg">
<g opacity="0.5">
<path d="M0.328125 0.253418H219.815V122.357H6.32812C3.01442 122.357 0.328125 119.671 0.328125 116.357V0.253418Z" fill="url(#paint0_linear)"/>
<path d="M0.328125 0.253418H219.815V122.357H6.32812C3.01442 122.357 0.328125 119.671 0.328125 116.357V0.253418Z" fill="black"/>
</g>
<mask id="mask0" mask-type="alpha" maskUnits="userSpaceOnUse" x="1" y="0" width="220" height="123">
<path d="M1 0H220.486V122.103H7C3.68629 122.103 1 119.417 1 116.103V0Z" fill="#FFF8F2"/>
</mask>
<g mask="url(#mask0)">
<g opacity="0.4">
<path fill-rule="evenodd" clip-rule="evenodd" d="M110.225 61.2223L15.9414 67.8706L30.2065 113.041L30.2201 113.037L110.225 61.2223L37.7004 123.653L75.0469 151.57L110.225 61.2223L87.1722 155.624H133.335L110.225 61.2223L145.46 151.57L182.807 123.653L110.225 61.2223L190.287 113.037L190.301 113.041L204.566 67.8706L110.225 61.2223L204.566 54.7533L190.301 9.5826L110.225 61.2223L182.807 -1.0295L145.46 -28.9465L110.225 61.2223L133.335 -33H87.1722L110.225 61.2223L75.0469 -28.9465L37.7004 -1.0295L110.225 61.2223L30.2065 9.5826L15.9414 54.7533L110.225 61.2223Z" fill="url(#paint1_radial)"/>
<path d="M110.546 -32.5188L116.647 42.7221L165.808 -14.5629L126.519 49.8945L199.963 32.4464L130.29 61.4996L199.963 90.5529L126.519 73.1048L165.808 137.562L116.647 80.2772L110.546 155.518L104.445 80.2772L55.2831 137.562L94.5727 73.1048L21.1289 90.5529L90.8019 61.4996L21.1289 32.4464L94.5727 49.8945L55.2831 -14.5629L104.445 42.7221L110.546 -32.5188Z" fill="url(#paint2_radial)"/>
</g>
<g opacity="0.5">
<path fill-rule="evenodd" clip-rule="evenodd" d="M111.316 57.2585L45.5985 82.0159L65.3486 111.148L65.3573 111.142L111.316 57.2585L72.9379 117.112L105.458 129.057L111.316 57.2585L114.952 129.368L147.819 119.564L111.316 57.2585L155.592 114.103L176.253 86.2945L111.316 57.2585L179.325 77.1469L179.335 77.1472L179.899 41.9562L111.316 57.2585L177.113 32.6167L157.363 3.48483L111.316 57.2585L149.773 -2.47943L117.254 -14.4247L111.316 57.2585L107.76 -14.7356L74.8919 -4.9316L111.316 57.2585L67.1196 0.529602L46.458 28.3381L111.316 57.2585L43.3761 37.4854L42.8127 72.6765L111.316 57.2585Z" fill="url(#paint3_radial)"/>
<path d="M91.6401 -9.55344L111.964 42.7222L134.8 -8.50546L120.516 45.7323L169.102 17.7114L125.665 53.1943L181.443 59.0831L125.445 62.258L167.109 99.8072L119.94 69.4613L131.575 124.328L111.252 72.0528L88.4148 123.28L102.7 69.0427L54.1133 97.0636L97.5501 61.5807L41.7727 55.6918L97.7701 52.517L56.1067 14.9677L103.276 45.3137L91.6401 -9.55344Z" fill="url(#paint4_radial)"/>
</g>
<path d="M103.194 89.278C89.1999 84.7764 87.7475 75.4441 87.5086 67.7942C87.3658 63.9107 90.5076 58.1802 91.0781 55.1178C91.7374 51.5783 94.7341 44.168 96.9454 41.1734C102.87 34.6522 101.956 33.9329 107.791 33.5333C113.627 33.1355 116.782 33.9763 120.78 36.8286C130.032 43.2269 128.879 46.9417 128.971 56.1159C129.048 61.0017 131.041 67.9782 129.409 72.6918C127.777 77.4035 127.424 79.8134 124.706 82.6053C121.989 85.3972 118.901 87.9513 115.898 88.9921C108.977 90.4047 105.236 89.5899 103.194 89.278Z" fill="#A7970A"/>
<path d="M106.589 87.7165C92.5944 83.2148 91.142 73.8826 90.9032 66.2327C90.7604 62.3491 93.9022 56.6187 94.4726 53.5563C95.132 50.0168 98.1286 42.6065 100.34 39.6119C106.265 33.0907 105.351 32.3713 111.185 31.9718C117.022 31.5739 120.176 32.4148 124.175 35.2671C133.427 41.6653 132.274 45.3802 132.366 54.5543C132.442 59.4402 134.436 66.4167 132.804 71.1303C131.172 75.842 130.819 78.2519 128.1 81.0438C125.383 83.8357 122.295 86.3898 119.293 87.4305C112.371 88.8432 108.631 88.0284 106.589 87.7165Z" fill="url(#paint5_radial)"/>
<path d="M106.589 87.7165C92.5944 83.2148 91.142 73.8826 90.9032 66.2327C90.7604 62.3491 93.9022 56.6187 94.4726 53.5563C95.132 50.0168 98.1286 42.6065 100.34 39.6119C106.265 33.0907 105.351 32.3713 111.185 31.9718C117.022 31.5739 120.176 32.4148 124.175 35.2671C133.427 41.6653 132.274 45.3802 132.366 54.5543C132.442 59.4402 134.436 66.4167 132.804 71.1303C131.172 75.842 130.819 78.2519 128.1 81.0438C125.383 83.8357 122.295 86.3898 119.293 87.4305C112.371 88.8432 108.631 88.0284 106.589 87.7165Z" fill="url(#paint6_linear)" fill-opacity="0.9"/>
<path d="M116.346 80.4784C116.346 82.6477 114.133 84.4062 112.018 84.4062C109.903 84.4062 108.688 82.6477 108.688 80.4784C108.688 78.3092 110.758 76.9893 112.873 76.9893C114.988 76.9893 116.346 78.3092 116.346 80.4784Z" fill="#988A0C"/>
<path d="M129.017 72.3855C126.741 74.2983 122.102 74.0548 119.432 72.3404C116.763 70.626 117.073 68.09 119.349 66.1772C121.625 64.2644 125.624 64.7791 128.294 66.4935C130.963 68.2079 131.293 70.4728 129.017 72.3856L129.017 72.3855Z" fill="#988A0C"/>
<path d="M119.188 40.8997C123.209 41.4088 124.816 45.0346 123.238 48.105C121.659 51.1753 117.492 52.5274 113.472 52.0183C109.451 51.5092 108.55 48.1931 110.129 45.1228C111.707 42.0525 115.168 40.3905 119.188 40.8997Z" fill="#988A0C"/>
<path d="M100.019 76.4203C98.9665 76.6971 97.8049 75.8868 97.5102 74.8983C97.2155 73.9097 97.8994 73.1171 98.952 72.8403C100.005 72.5636 100.934 73.3631 101.228 74.3517C101.523 75.3403 101.072 76.1436 100.019 76.4203Z" fill="#988A0C"/>
<path d="M97.8401 62.0587C96.8501 60.4508 97.3645 57.8087 98.623 56.5295C99.8814 55.2503 101.407 55.8184 102.397 57.4262C103.387 59.0341 102.758 61.2649 101.499 62.5441C100.241 63.8234 98.8301 63.6665 97.8401 62.0587Z" fill="#988A0C"/>
<path d="M67.0184 31.7887C61.3793 36.0794 57.2895 34.0799 54.1994 32.0646C52.6248 31.05 51.2259 28.2275 50.1725 27.1574C48.9551 25.9207 46.8521 22.6923 46.2781 20.9922C45.3341 16.8515 44.7977 17.0145 46.2488 14.5977C47.7011 12.1808 48.9035 11.1656 51.1339 10.3715C56.2148 8.4786 57.3654 9.95887 61.0176 12.4526C62.9702 13.7698 66.2779 14.9058 67.6912 16.8509C69.1038 18.7956 69.9591 19.5997 70.3132 21.4443C70.6676 23.2883 70.8256 25.2135 70.4089 26.6876C69.0586 29.8134 67.7048 31.0675 67.0184 31.7887Z" fill="#A7970A"/>
<path d="M67.3387 30.016C61.6996 34.3067 57.6098 32.3072 54.5197 30.2919C52.9451 29.2773 51.5462 26.4548 50.4928 25.3847C49.2754 24.1479 47.1724 20.9196 46.5984 19.2195C45.6545 15.0788 45.118 15.2418 46.5691 12.825C48.0214 10.4081 49.2238 9.39293 51.4542 8.59875C56.5351 6.70589 57.6857 8.18617 61.3379 10.6799C63.2905 11.9971 66.5982 13.1331 68.0115 15.0782C69.4241 17.0229 70.2795 17.827 70.6335 19.6716C70.9879 21.5156 71.146 23.4408 70.7292 24.9149C69.3789 28.0407 68.0251 29.2948 67.3387 30.016Z" fill="url(#paint7_radial)"/>
<path d="M67.3387 30.016C61.6996 34.3067 57.6098 32.3072 54.5197 30.2919C52.9451 29.2773 51.5462 26.4548 50.4928 25.3847C49.2754 24.1479 47.1724 20.9196 46.5984 19.2195C45.6545 15.0788 45.118 15.2418 46.5691 12.825C48.0214 10.4081 49.2238 9.39293 51.4542 8.59875C56.5351 6.70589 57.6857 8.18617 61.3379 10.6799C63.2905 11.9971 66.5982 13.1331 68.0115 15.0782C69.4241 17.0229 70.2795 17.827 70.6335 19.6716C70.9879 21.5156 71.146 23.4408 70.7292 24.9149C69.3789 28.0407 68.0251 29.2948 67.3387 30.016Z" fill="url(#paint8_linear)" fill-opacity="0.9"/>
<path d="M67.1672 24.1626C68.0247 24.7608 68.1096 26.1207 67.5263 26.9567C66.9431 27.7927 65.9127 27.7883 65.0551 27.1901C64.1976 26.5918 64.2468 25.4092 64.8301 24.5732C65.4133 23.7372 66.3096 23.5643 67.1672 24.1626Z" fill="#988A0C"/>
<path d="M67.4623 16.9215C67.5907 18.3488 66.2151 20.1155 64.8012 20.6981C63.3872 21.2806 62.4703 20.4584 62.3419 19.031C62.2134 17.6037 63.5197 16.1648 64.9337 15.5823C66.3476 14.9998 67.3339 15.4942 67.4623 16.9215L67.4623 16.9215Z" fill="#988A0C"/>
<path d="M52.3034 12.1235C53.6135 10.6745 55.4901 11.039 56.2685 12.5099C57.0469 13.9807 56.4323 16.0008 55.1222 17.4498C53.8121 18.8989 52.2528 18.3405 51.4743 16.8697C50.6959 15.3988 50.9932 13.5725 52.3034 12.1235Z" fill="#988A0C"/>
<path d="M61.0582 29.4978C60.8773 29.9902 60.2367 30.226 59.7646 30.0698C59.2925 29.9136 59.1678 29.4247 59.3487 28.9323C59.5295 28.4398 60.1018 28.2931 60.5739 28.4493C61.046 28.6054 61.2391 29.0053 61.0582 29.4978Z" fill="#988A0C"/>
<path d="M54.7826 26.3983C53.874 26.3463 52.9713 25.4143 52.8127 24.564C52.6541 23.7137 53.2995 23.2671 54.2082 23.3192C55.1168 23.3712 55.825 24.2354 55.9837 25.0857C56.1423 25.936 55.6913 26.4504 54.7826 26.3983Z" fill="#988A0C"/>
<path d="M139.132 10.1822C136.186 6.92939 137.203 4.29978 138.283 2.28628C138.826 1.26089 140.494 0.248299 141.098 -0.458322C141.797 -1.27502 143.678 -2.74362 144.697 -3.18776C147.202 -3.98935 147.073 -4.31179 148.641 -3.54416C150.21 -2.77586 150.9 -2.08757 151.508 -0.753235C152.945 2.28203 152.092 3.07038 150.747 5.45606C150.037 6.73071 149.511 8.83202 148.385 9.80706C147.26 10.7816 146.809 11.352 145.69 11.6681C144.57 11.9844 143.391 12.1838 142.459 12.0046C140.459 11.3367 139.613 10.5676 139.132 10.1822Z" fill="#A7970A"/>
<path d="M140.245 10.2852C137.299 7.03241 138.316 4.4028 139.397 2.38931C139.939 1.36392 141.607 0.351327 142.212 -0.355295C142.911 -1.17199 144.791 -2.64059 145.81 -3.08474C148.315 -3.88633 148.187 -4.20877 149.755 -3.44113C151.323 -2.67284 152.013 -1.98455 152.621 -0.650208C154.058 2.38505 153.205 3.17341 151.86 5.55909C151.15 6.83373 150.624 8.93505 149.499 9.91009C148.373 10.8847 147.922 11.4551 146.803 11.7711C145.684 12.0874 144.504 12.2868 143.572 12.1076C141.572 11.4397 140.726 10.6707 140.245 10.2852Z" fill="url(#paint9_radial)"/>
<path d="M140.245 10.2852C137.299 7.03241 138.316 4.4028 139.397 2.38931C139.939 1.36392 141.607 0.351327 142.212 -0.355295C142.911 -1.17199 144.791 -2.64059 145.81 -3.08474C148.315 -3.88633 148.187 -4.20877 149.755 -3.44113C151.323 -2.67284 152.013 -1.98455 152.621 -0.650208C154.058 2.38505 153.205 3.17341 151.86 5.55909C151.15 6.83373 150.624 8.93505 149.499 9.91009C148.373 10.8847 147.922 11.4551 146.803 11.7711C145.684 12.0874 144.504 12.2868 143.572 12.1076C141.572 11.4397 140.726 10.6707 140.245 10.2852Z" fill="url(#paint10_linear)" fill-opacity="0.9"/>
<path d="M143.846 9.87021C143.522 10.4311 142.687 10.5554 142.141 10.2397C141.594 9.92401 141.542 9.28791 141.866 8.72707C142.19 8.16622 142.922 8.13403 143.469 8.4497C144.016 8.76538 144.17 9.30937 143.846 9.87021Z" fill="#988A0C"/>
<path d="M148.328 9.66923C147.454 9.82402 146.291 9.06861 145.857 8.2269C145.423 7.38516 145.882 6.77584 146.756 6.62106C147.63 6.46627 148.587 7.19625 149.021 8.03798C149.455 8.87971 149.202 9.51446 148.328 9.66925L148.328 9.66923Z" fill="#988A0C"/>
<path d="M150.487 0.0618422C151.451 0.793634 151.325 1.971 150.459 2.52918C149.592 3.08736 148.313 2.81496 147.35 2.08317C146.386 1.35138 146.648 0.359559 147.515 -0.198614C148.381 -0.75679 149.524 -0.66995 150.487 0.0618422Z" fill="#988A0C"/>
<path d="M140.229 6.38401C139.916 6.29844 139.736 5.91557 139.808 5.61599C139.879 5.31641 140.174 5.21358 140.488 5.29914C140.801 5.38471 140.922 5.7301 140.851 6.02968C140.779 6.32925 140.543 6.46957 140.229 6.38401Z" fill="#988A0C"/>
<path d="M141.81 2.3457C141.794 1.78223 142.321 1.17591 142.837 1.03303C143.354 0.890153 143.663 1.26481 143.679 1.82829C143.695 2.39177 143.2 2.87454 142.683 3.01742C142.167 3.1603 141.826 2.90918 141.81 2.3457Z" fill="#988A0C"/>
<path d="M163.114 48.322C161.009 41.556 164.287 38.396 167.237 36.1809C168.728 35.0479 171.859 34.698 173.225 34.0738C174.803 33.3525 178.556 32.4796 180.35 32.5213C184.564 33.0496 184.594 32.4897 186.369 34.6795C188.144 36.8704 188.687 38.3474 188.671 40.7149C188.713 46.1368 186.929 46.7121 183.337 49.2919C181.432 50.6767 179.233 53.397 176.922 54.0602C174.612 54.723 173.564 55.252 171.709 54.9542C169.855 54.657 167.992 54.1475 166.749 53.252C164.273 50.9145 163.557 49.2136 163.114 48.322Z" fill="#A7970A"/>
<path d="M164.673 49.2275C162.568 42.4615 165.845 39.3015 168.795 37.0864C170.287 35.9534 173.418 35.6035 174.783 34.9794C176.362 34.258 180.114 33.3851 181.908 33.4268C186.122 33.9551 186.153 33.3952 187.928 35.5851C189.703 37.7759 190.246 39.2529 190.23 41.6204C190.272 47.0423 188.487 47.6176 184.895 50.1975C182.99 51.5822 180.792 54.3025 178.481 54.9658C176.171 55.6285 175.123 56.1575 173.268 55.8597C171.414 55.5625 169.551 55.053 168.308 54.1575C165.832 51.82 165.116 50.1191 164.673 49.2275Z" fill="url(#paint11_radial)"/>
<path d="M164.673 49.2275C162.568 42.4615 165.845 39.3015 168.795 37.0864C170.287 35.9534 173.418 35.6035 174.783 34.9794C176.362 34.258 180.114 33.3851 181.908 33.4268C186.122 33.9551 186.153 33.3952 187.928 35.5851C189.703 37.7759 190.246 39.2529 190.23 41.6204C190.272 47.0423 188.487 47.6176 184.895 50.1975C182.99 51.5822 180.792 54.3025 178.481 54.9658C176.171 55.6285 175.123 56.1575 173.268 55.8597C171.414 55.5625 169.551 55.053 168.308 54.1575C165.832 51.82 165.116 50.1191 164.673 49.2275Z" fill="url(#paint12_linear)" fill-opacity="0.9"/>
<path d="M170.232 51.0681C169.376 51.6695 168.069 51.2844 167.483 50.4505C166.897 49.6167 167.253 48.6498 168.109 48.0484C168.964 47.447 170.058 47.8975 170.645 48.7314C171.231 49.5652 171.087 50.4667 170.232 51.0681Z" fill="#988A0C"/>
<path d="M176.934 53.8207C175.549 53.4535 174.359 51.5569 174.295 50.029C174.23 48.5011 175.316 47.9205 176.702 48.2876C178.087 48.6548 178.993 50.3742 179.057 51.9021C179.121 53.4301 178.319 54.1879 176.934 53.8207L176.934 53.8207Z" fill="#988A0C"/>
<path d="M186.625 41.2161C187.539 42.9425 186.555 44.5816 184.906 44.8103C183.258 45.0391 181.57 43.771 180.656 42.0445C179.742 40.318 180.8 39.0435 182.448 38.8147C184.096 38.5859 185.711 39.4896 186.625 41.2161Z" fill="#988A0C"/>
<path d="M167.305 43.5055C166.904 43.1672 166.901 42.4845 167.209 42.0942C167.517 41.704 168.019 41.7539 168.42 42.0922C168.821 42.4305 168.764 43.0185 168.456 43.4087C168.147 43.799 167.706 43.8438 167.305 43.5055Z" fill="#988A0C"/>
<path d="M172.363 38.6646C172.722 37.8284 173.907 37.2987 174.76 37.4403C175.613 37.5819 175.812 38.3411 175.453 39.1772C175.093 40.0133 174.039 40.3835 173.186 40.242C172.333 40.1004 172.003 39.5007 172.363 38.6646Z" fill="#988A0C"/>
<path d="M206.552 5.10033C204.447 -1.6657 207.724 -4.82572 210.674 -7.0408C212.166 -8.17381 215.297 -8.52372 216.662 -9.14784C218.241 -9.86917 221.993 -10.7421 223.787 -10.7004C228.001 -10.1721 228.031 -10.732 229.807 -8.54214C231.582 -6.35126 232.125 -4.87427 232.109 -2.50677C232.151 2.91512 230.366 3.49044 226.774 6.07026C224.869 7.45504 222.671 10.1753 220.36 10.8386C218.05 11.5013 217.001 12.0303 215.147 11.7325C213.293 11.4353 211.43 10.9258 210.187 10.0303C207.711 7.69285 206.995 5.99194 206.552 5.10033Z" fill="#A7970A"/>
<path d="M208.11 6.00585C206.006 -0.760186 209.283 -3.92021 212.233 -6.13528C213.725 -7.26829 216.855 -7.61821 218.221 -8.24232C219.799 -8.96365 223.552 -9.83655 225.346 -9.79486C229.56 -9.26659 229.59 -9.82646 231.365 -7.63662C233.14 -5.44575 233.683 -3.96876 233.667 -1.60125C233.709 3.82064 231.925 4.39596 228.333 6.97578C226.428 8.36056 224.23 11.0808 221.918 11.7441C219.608 12.4069 218.56 12.9358 216.706 12.6381C214.851 12.3408 212.988 11.8313 211.745 10.9358C209.269 8.59836 208.554 6.89746 208.11 6.00585Z" fill="url(#paint13_radial)"/>
<path d="M208.11 6.00585C206.006 -0.760186 209.283 -3.92021 212.233 -6.13528C213.725 -7.26829 216.855 -7.61821 218.221 -8.24232C219.799 -8.96365 223.552 -9.83655 225.346 -9.79486C229.56 -9.26659 229.59 -9.82646 231.365 -7.63662C233.14 -5.44575 233.683 -3.96876 233.667 -1.60125C233.709 3.82064 231.925 4.39596 228.333 6.97578C226.428 8.36056 224.23 11.0808 221.918 11.7441C219.608 12.4069 218.56 12.9358 216.706 12.6381C214.851 12.3408 212.988 11.8313 211.745 10.9358C209.269 8.59836 208.554 6.89746 208.11 6.00585Z" fill="url(#paint14_linear)" fill-opacity="0.9"/>
<path d="M213.669 7.8464C212.814 8.44781 211.507 8.06271 210.921 7.22885C210.334 6.395 210.691 5.42815 211.546 4.82674C212.401 4.22533 213.496 4.67582 214.082 5.50968C214.669 6.34353 214.525 7.24499 213.669 7.8464Z" fill="#988A0C"/>
<path d="M220.372 10.599C218.986 10.2319 217.796 8.33523 217.732 6.80733C217.668 5.27941 218.754 4.69878 220.139 5.06594C221.525 5.4331 222.43 7.15254 222.494 8.68046C222.558 10.2084 221.757 10.9662 220.371 10.599L220.372 10.599Z" fill="#988A0C"/>
<path d="M210.742 0.283793C210.341 -0.0545095 210.339 -0.737173 210.647 -1.12744C210.955 -1.5177 211.457 -1.46778 211.858 -1.12948C212.259 -0.79118 212.201 -0.203204 211.893 0.18706C211.585 0.577324 211.143 0.622095 210.742 0.283793Z" fill="#988A0C"/>
<path d="M9.40983 18.0173C6.39065 24.4278 1.83966 24.5437 -1.83191 24.1837C-3.69717 24.0113 -6.2417 22.1543 -7.67023 21.6918C-9.3213 21.1573 -12.6779 19.2656 -13.9723 18.0229C-16.7223 14.7865 -17.1228 15.1789 -16.9522 12.3651C-16.7807 9.55071 -16.1832 8.09488 -14.572 6.36018C-10.9401 2.33424 -9.23582 3.11558 -4.8447 3.64014C-2.50445 3.90632 0.954008 3.38583 3.10601 4.45811C5.25717 5.53027 6.38726 5.84833 7.55337 7.32075C8.71955 8.79251 9.74907 10.4269 10.0605 11.9268C10.3068 15.3229 9.68546 17.0606 9.40983 18.0173Z" fill="#A7970A"/>
<path d="M8.87467 16.2981C5.85549 22.7085 1.30451 22.8244 -2.36707 22.4645C-4.23233 22.2921 -6.77685 20.4351 -8.20539 19.9726C-9.85646 19.4381 -13.213 17.5464 -14.5074 16.3037C-17.2574 13.0673 -17.658 13.4597 -17.4874 10.6458C-17.3159 7.83147 -16.7184 6.37564 -15.1071 4.64094C-11.4753 0.615006 -9.77098 1.39635 -5.37986 1.92091C-3.03961 2.18708 0.418855 1.66659 2.57086 2.73887C4.72201 3.81104 5.8521 4.1291 7.01821 5.60151C8.1844 7.07327 9.21392 8.70767 9.52531 10.2076C9.77162 13.6037 9.1503 15.3413 8.87467 16.2981Z" fill="url(#paint15_radial)"/>
<path d="M8.87467 16.2981C5.85549 22.7085 1.30451 22.8244 -2.36707 22.4645C-4.23233 22.2921 -6.77685 20.4351 -8.20539 19.9726C-9.85646 19.4381 -13.213 17.5464 -14.5074 16.3037C-17.2574 13.0673 -17.658 13.4597 -17.4874 10.6458C-17.3159 7.83147 -16.7184 6.37564 -15.1071 4.64094C-11.4753 0.615006 -9.77098 1.39635 -5.37986 1.92091C-3.03961 2.18708 0.418855 1.66659 2.57086 2.73887C4.72201 3.81104 5.8521 4.1291 7.01821 5.60151C8.1844 7.07327 9.21392 8.70767 9.52531 10.2076C9.77162 13.6037 9.1503 15.3413 8.87467 16.2981Z" fill="url(#paint16_linear)" fill-opacity="0.9"/>
<path d="M6.01751 11.1854C7.05444 11.3198 7.75787 12.4867 7.62681 13.4976C7.49575 14.5085 6.57981 14.9806 5.54289 14.8461C4.50597 14.7117 4.00333 13.6401 4.13439 12.6292C4.26545 11.6183 4.98059 11.0509 6.01751 11.1854Z" fill="#988A0C"/>
<path d="M2.93413 4.62681C3.70742 5.83336 3.30352 8.03571 2.3186 9.20555C1.33364 10.3754 0.140613 10.0697 -0.632667 8.86316C-1.40595 7.65661 -0.912093 5.77701 0.0728585 4.60717C1.05781 3.43733 2.16089 3.42025 2.93417 4.62681L2.93413 4.62681Z" fill="#988A0C"/>
<path d="M3.0655 18.7383C3.13256 19.2586 2.67327 19.7636 2.18244 19.8432C1.69162 19.9228 1.35514 19.5468 1.28808 19.0265C1.22103 18.5062 1.6608 18.1116 2.15162 18.0321C2.64244 17.9525 2.99844 18.218 3.0655 18.7383Z" fill="#988A0C"/>
<path d="M28.9611 119.874C32.1965 126.178 29.5108 129.853 26.9848 132.542C25.7098 133.915 22.6858 134.797 21.4476 135.646C20.0165 136.628 16.4694 138.132 14.695 138.399C10.4529 138.602 10.5193 139.159 8.39439 137.307C6.26966 135.453 5.48105 134.091 5.09028 131.756C4.11773 126.422 5.77684 125.549 8.87236 122.391C10.5115 120.699 12.21 117.642 14.3728 116.592C16.535 115.542 17.4767 114.841 19.3548 114.816C21.2324 114.79 23.1554 114.972 24.5336 115.641C27.3742 117.519 28.3715 119.071 28.9611 119.874Z" fill="#A7970A"/>
<path d="M27.2736 119.249C30.509 125.553 27.8233 129.229 25.2973 131.917C24.0223 133.29 20.9983 134.172 19.7601 135.021C18.329 136.003 14.7819 137.507 13.0075 137.774C8.76539 137.978 8.83176 138.534 6.70689 136.682C4.58216 134.828 3.79355 133.467 3.40278 131.131C2.43023 125.797 4.08934 124.924 7.18486 121.766C8.82402 120.075 10.5225 117.017 12.6853 115.967C14.8475 114.917 15.7892 114.216 17.6673 114.191C19.5449 114.166 21.4679 114.347 22.8461 115.016C25.6867 116.894 26.684 118.447 27.2736 119.249Z" fill="url(#paint17_radial)"/>
<path d="M27.2736 119.249C30.509 125.553 27.8233 129.229 25.2973 131.917C24.0223 133.29 20.9983 134.172 19.7601 135.021C18.329 136.003 14.7819 137.507 13.0075 137.774C8.76539 137.978 8.83176 138.534 6.70689 136.682C4.58216 134.828 3.79355 133.467 3.40278 131.131C2.43023 125.797 4.08934 124.924 7.18486 121.766C8.82402 120.075 10.5225 117.017 12.6853 115.967C14.8475 114.917 15.7892 114.216 17.6673 114.191C19.5449 114.166 21.4679 114.347 22.8461 115.016C25.6867 116.894 26.684 118.447 27.2736 119.249Z" fill="url(#paint18_linear)" fill-opacity="0.9"/>
<path d="M21.4814 118.39C22.2207 117.651 23.5744 117.806 24.2952 118.527C25.016 119.247 24.8309 120.261 24.0916 121C23.3522 121.74 22.1966 121.484 21.4758 120.763C20.755 120.042 20.742 119.13 21.4814 118.39Z" fill="#988A0C"/>
<path d="M14.4036 116.83C15.8313 116.954 17.3294 118.618 17.655 120.112C17.9805 121.606 17.0102 122.365 15.5825 122.241C14.1548 122.117 12.9673 120.579 12.6417 119.084C12.3162 117.59 12.9759 116.706 14.4036 116.83L14.4036 116.83Z" fill="#988A0C"/>
<path d="M195.075 99.6708C200.944 92.1548 206.952 93.3563 211.664 94.9208C214.061 95.7019 216.848 98.896 218.586 99.9279C220.594 101.121 224.437 104.602 225.766 106.618C228.413 111.684 229.056 111.288 227.995 114.93C226.933 118.573 225.715 120.306 223.085 122.104C217.12 126.308 215.116 124.776 209.508 122.781C206.516 121.736 201.822 121.39 199.316 119.343C196.811 117.296 195.423 116.542 194.33 114.263C193.237 111.984 192.372 109.533 192.409 107.471C193.096 102.941 194.428 100.845 195.075 99.6708Z" fill="#A7970A"/>
<path d="M195.27 102.087C201.14 94.5711 207.147 95.7725 211.859 97.337C214.256 98.1181 217.044 101.312 218.781 102.344C220.789 103.537 224.632 107.018 225.962 109.034C228.609 114.1 229.251 113.704 228.19 117.347C227.128 120.99 225.911 122.723 223.28 124.52C217.316 128.724 215.311 127.192 209.704 125.197C206.711 124.152 202.017 123.806 199.511 121.759C197.007 119.712 195.618 118.958 194.525 116.679C193.432 114.4 192.567 111.949 192.605 109.888C193.291 105.357 194.624 103.261 195.27 102.087Z" fill="url(#paint19_radial)"/>
<path d="M195.27 102.087C201.14 94.5711 207.147 95.7725 211.859 97.337C214.256 98.1181 217.044 101.312 218.781 102.344C220.789 103.537 224.632 107.018 225.962 109.034C228.609 114.1 229.251 113.704 228.19 117.347C227.128 120.99 225.911 122.723 223.28 124.52C217.316 128.724 215.311 127.192 209.704 125.197C206.711 124.152 202.017 123.806 199.511 121.759C197.007 119.712 195.618 118.958 194.525 116.679C193.432 114.4 192.567 111.949 192.605 109.888C193.291 105.357 194.624 103.261 195.27 102.087Z" fill="url(#paint20_linear)" fill-opacity="0.9"/>
<path d="M197.495 109.647C196.174 109.162 195.598 107.421 196.071 106.133C196.544 104.845 197.886 104.498 199.207 104.983C200.528 105.468 200.869 107.024 200.397 108.312C199.924 109.6 198.816 110.132 197.495 109.647Z" fill="#988A0C"/>
<path d="M199.59 119.172C198.934 117.358 200.119 114.588 201.76 113.345C203.4 112.103 204.875 112.859 205.531 114.673C206.188 116.486 204.98 118.806 203.34 120.049C201.699 121.291 200.246 120.986 199.59 119.172L199.59 119.172Z" fill="#988A0C"/>
<path d="M220.963 120.225C219.754 122.559 217.187 122.728 215.67 121.08C214.153 119.432 214.261 116.593 215.469 114.258C216.678 111.923 218.899 112.116 220.416 113.763C221.933 115.411 222.171 117.89 220.963 120.225Z" fill="#988A0C"/>
<path d="M203.616 100.611C203.683 99.9085 204.436 99.3822 205.104 99.4238C205.772 99.4653 206.102 100.059 206.035 100.762C205.968 101.465 205.274 101.852 204.606 101.81C203.938 101.769 203.549 101.314 203.616 100.611Z" fill="#988A0C"/>
<path d="M212.847 102.494C214.047 102.251 215.541 103.155 216.039 104.207C216.537 105.259 215.85 106.061 214.649 106.305C213.449 106.549 212.231 105.666 211.733 104.614C211.235 103.562 211.646 102.738 212.847 102.494Z" fill="#988A0C"/>
<path d="M61.3735 94.7247C62.3444 98.0884 60.6934 99.616 59.2135 100.68C58.4651 101.225 56.9151 101.366 56.2341 101.66C55.4471 102 53.5844 102.393 52.6987 102.354C50.6224 102.051 50.6018 102.327 49.7472 101.227C48.8928 100.127 48.6395 99.3915 48.6716 98.2222C48.706 95.5435 49.5933 95.2774 51.3939 94.0396C52.3491 93.375 53.4627 92.0536 54.6111 91.7495C55.7591 91.4456 56.2822 91.195 57.1952 91.361C58.1081 91.5267 59.0233 91.7974 59.6282 92.2524C60.8274 93.4322 61.1637 94.2797 61.3735 94.7247Z" fill="#A7970A"/>
<path d="M60.6118 94.2616C61.5826 97.6253 59.9317 99.1529 58.4518 100.217C57.7034 100.762 56.1534 100.902 55.4724 101.197C54.6853 101.537 52.8227 101.93 51.937 101.891C49.8607 101.587 49.8401 101.864 48.9855 100.764C48.131 99.6635 47.8778 98.9284 47.9098 97.759C47.9443 95.0803 48.8316 94.8143 50.6322 93.5765C51.5874 92.9118 52.701 91.5905 53.8494 91.2864C54.9974 90.9825 55.5205 90.7319 56.4335 90.8979C57.3464 91.0636 58.2616 91.3342 58.8664 91.7892C60.0657 92.9691 60.402 93.8166 60.6118 94.2616Z" fill="url(#paint21_radial)"/>
<path d="M60.6118 94.2616C61.5826 97.6253 59.9317 99.1529 58.4518 100.217C57.7034 100.762 56.1534 100.902 55.4724 101.197C54.6853 101.537 52.8227 101.93 51.937 101.891C49.8607 101.587 49.8401 101.864 48.9855 100.764C48.131 99.6635 47.8778 98.9284 47.9098 97.759C47.9443 95.0803 48.8316 94.8143 50.6322 93.5765C51.5874 92.9118 52.701 91.5905 53.8494 91.2864C54.9974 90.9825 55.5205 90.7319 56.4335 90.8979C57.3464 91.0636 58.2616 91.3342 58.8664 91.7892C60.0657 92.9691 60.402 93.8166 60.6118 94.2616Z" fill="url(#paint22_linear)" fill-opacity="0.9"/>
<path d="M57.8862 93.2956C58.3149 93.0072 58.9566 93.2108 59.2377 93.6286C59.5188 94.0465 59.3329 94.5205 58.9043 94.8089C58.4757 95.0972 57.9396 94.8636 57.6584 94.4457C57.3773 94.0278 57.4576 93.584 57.8862 93.2956Z" fill="#988A0C"/>
<path d="M54.6016 91.8681C55.2821 92.0635 55.8507 93.0125 55.8668 93.7679C55.883 94.5234 55.3405 94.7991 54.66 94.6036C53.9794 94.4082 53.5495 93.5496 53.5334 92.7942C53.5173 92.0388 53.9211 91.6726 54.6016 91.868L54.6016 91.8681Z" fill="#988A0C"/>
<path d="M49.6886 97.9955C49.2547 97.1334 49.7575 96.3337 50.5741 96.2375C51.3907 96.1413 52.2118 96.7849 52.6456 97.6471C53.0795 98.5092 52.544 99.1281 51.7275 99.2243C50.9109 99.3205 50.1225 98.8577 49.6886 97.9955Z" fill="#988A0C"/>
<path d="M59.2546 97.0613C59.4492 97.2325 59.4435 97.5698 59.2874 97.7594C59.1312 97.9491 58.8837 97.9193 58.689 97.7481C58.4944 97.5769 58.5289 97.287 58.6851 97.0974C58.8413 96.9077 59.06 96.8901 59.2546 97.0613Z" fill="#988A0C"/>
<path d="M56.7091 99.4012C56.523 99.8105 55.9326 100.06 55.5125 99.9815C55.0924 99.9029 55.0018 99.5258 55.1879 99.1164C55.374 98.7071 55.8985 98.535 56.3186 98.6136C56.7387 98.6922 56.8952 98.9918 56.7091 99.4012Z" fill="#988A0C"/>
<path d="M33.0183 58.6655C34.8868 65.1395 31.7092 68.0797 28.861 70.1278C27.4205 71.1758 24.4373 71.4471 23.1266 72.0137C21.6118 72.6686 18.0268 73.4249 16.3221 73.3501C12.326 72.7653 12.2863 73.297 10.6415 71.1802C8.99698 69.0625 8.50964 67.6476 8.57127 65.397C8.63748 60.2413 10.3453 59.7293 13.8108 57.347C15.6493 56.0678 17.7926 53.5246 20.0028 52.9393C22.2124 52.3544 23.2192 51.8721 24.9765 52.1915C26.7334 52.5105 28.4949 53.0314 29.659 53.9071C31.9672 56.178 32.6144 57.8091 33.0183 58.6655Z" fill="#A7970A"/>
<path d="M31.5495 57.7741C33.4181 64.2482 30.2405 67.1883 27.3922 69.2364C25.9518 70.2844 22.9685 70.5557 21.6579 71.1223C20.1431 71.7772 16.5581 72.5336 14.8534 72.4587C10.8573 71.8739 10.8176 72.4056 9.17275 70.2888C7.52823 68.1711 7.04089 66.7562 7.10252 64.5056C7.16873 59.35 8.87652 58.838 12.342 56.4556C14.1806 55.1764 16.3239 52.6332 18.5341 52.0479C20.7436 51.4631 21.7504 50.9807 23.5077 51.3002C25.2647 51.6191 27.0262 52.14 28.1903 53.0158C30.4984 55.2866 31.1457 56.9178 31.5495 57.7741Z" fill="url(#paint23_radial)"/>
<path d="M31.5495 57.7741C33.4181 64.2482 30.2405 67.1883 27.3922 69.2364C25.9518 70.2844 22.9685 70.5557 21.6579 71.1223C20.1431 71.7772 16.5581 72.5336 14.8534 72.4587C10.8573 71.8739 10.8176 72.4056 9.17275 70.2888C7.52823 68.1711 7.04089 66.7562 7.10252 64.5056C7.16873 59.35 8.87652 58.838 12.342 56.4556C14.1806 55.1764 16.3239 52.6332 18.5341 52.0479C20.7436 51.4631 21.7504 50.9807 23.5077 51.3002C25.2647 51.6191 27.0262 52.14 28.1903 53.0158C30.4984 55.2866 31.1457 56.9178 31.5495 57.7741Z" fill="url(#paint24_linear)" fill-opacity="0.9"/>
<path d="M26.3051 55.9149C27.13 55.3599 28.3651 55.7517 28.9062 56.5559C29.4472 57.3602 29.0895 58.2724 28.2645 58.8275C27.4395 59.3825 26.4077 58.9327 25.8666 58.1285C25.3255 57.3242 25.4801 56.47 26.3051 55.9149Z" fill="#988A0C"/>
<path d="M19.9811 53.1675C21.2909 53.5437 22.3852 55.3702 22.4162 56.8241C22.4472 58.278 21.4033 58.8088 20.0934 58.4325C18.7836 58.0563 17.9562 56.4038 17.9252 54.9499C17.8941 53.496 18.6712 52.7912 19.9811 53.1674L19.9811 53.1675Z" fill="#988A0C"/>
<path d="M10.5287 64.9607C9.69356 63.3014 10.6613 61.7624 12.2329 61.5772C13.8045 61.392 15.3849 62.6307 16.2199 64.2901C17.055 65.9494 16.0244 67.1405 14.4528 67.3257C12.8812 67.5109 11.3637 66.6201 10.5287 64.9607Z" fill="#988A0C"/>
<path d="M28.9379 63.1628C29.3125 63.4923 29.3016 64.1414 29.001 64.5064C28.7004 64.8714 28.224 64.8141 27.8494 64.4846C27.4749 64.1551 27.5412 63.5972 27.8418 63.2322C28.1424 62.8672 28.5634 62.8333 28.9379 63.1628Z" fill="#988A0C"/>
<path d="M24.0416 67.6662C23.6835 68.4541 22.547 68.9344 21.7385 68.7831C20.93 68.6318 20.7556 67.9061 21.1138 67.1182C21.472 66.3303 22.4815 65.999 23.29 66.1503C24.0985 66.3016 24.3998 66.8783 24.0416 67.6662Z" fill="#988A0C"/>
<path d="M122.127 108.801C128.714 107.381 131.429 110.753 133.277 113.735C134.224 115.244 134.29 118.238 134.765 119.585C135.315 121.141 135.824 124.769 135.632 126.465C134.775 130.412 135.302 130.488 133.078 131.984C130.852 133.479 129.407 133.868 127.166 133.652C122.027 133.233 121.634 131.494 119.494 127.873C118.344 125.951 115.954 123.639 115.522 121.394C115.09 119.149 114.677 118.112 115.117 116.38C115.555 114.649 116.196 112.928 117.149 111.827C119.573 109.679 121.245 109.146 122.127 108.801Z" fill="#A7970A"/>
<path d="M121.138 110.203C127.725 108.782 130.441 112.154 132.289 115.136C133.236 116.645 133.302 119.64 133.777 120.986C134.327 122.542 134.835 126.171 134.644 127.866C133.786 131.813 134.314 131.889 132.09 133.385C129.864 134.88 128.419 135.269 126.178 135.054C121.039 134.634 120.645 132.895 118.506 129.274C117.356 127.352 114.966 125.04 114.533 122.795C114.101 120.55 113.689 119.513 114.128 117.782C114.567 116.051 115.207 114.329 116.161 113.228C118.585 111.081 120.256 110.547 121.138 110.203Z" fill="url(#paint25_radial)"/>
<path d="M121.138 110.203C127.725 108.782 130.441 112.154 132.289 115.136C133.236 116.645 133.302 119.64 133.777 120.986C134.327 122.542 134.835 126.171 134.644 127.866C133.786 131.813 134.314 131.889 132.09 133.385C129.864 134.88 128.419 135.269 126.178 135.054C121.039 134.634 120.645 132.895 118.506 129.274C117.356 127.352 114.966 125.04 114.533 122.795C114.101 120.55 113.689 119.513 114.128 117.782C114.567 116.051 115.207 114.329 116.161 113.228C118.585 111.081 120.256 110.547 121.138 110.203Z" fill="url(#paint26_linear)" fill-opacity="0.9"/>
<path d="M118.922 115.309C118.425 114.448 118.9 113.242 119.74 112.758C120.579 112.273 121.465 112.693 121.962 113.554C122.459 114.415 121.94 115.413 121.1 115.898C120.261 116.383 119.419 116.17 118.922 115.309Z" fill="#988A0C"/>
<path d="M115.748 121.428C116.213 120.147 118.11 119.181 119.563 119.25C121.015 119.318 121.473 120.396 121.008 121.677C120.543 122.958 118.838 123.67 117.385 123.602C115.932 123.533 115.283 122.709 115.748 121.428L115.748 121.428Z" fill="#988A0C"/>
<path d="M126.335 113.179C126.689 112.828 127.336 112.883 127.68 113.208C128.023 113.533 127.933 114.004 127.579 114.355C127.225 114.706 126.673 114.602 126.329 114.277C125.986 113.952 125.981 113.53 126.335 113.179Z" fill="#988A0C"/>
<path d="M130.49 118.373C131.252 118.785 131.653 119.952 131.447 120.748C131.241 121.544 130.505 121.668 129.743 121.257C128.982 120.846 128.72 119.816 128.927 119.019C129.133 118.223 129.729 117.962 130.49 118.373Z" fill="#988A0C"/>
</g>
<defs>
<linearGradient id="paint0_linear" x1="0.328125" y1="0.253418" x2="219.815" y2="122.357" gradientUnits="userSpaceOnUse">
<stop stop-color="#3C3C3C"/>
<stop offset="0.244792" stop-color="#FD8242"/>
<stop offset="0.713542" stop-color="#FD8242"/>
<stop offset="1" stop-color="#3C3C3C"/>
</linearGradient>
<radialGradient id="paint1_radial" cx="0" cy="0" r="1" gradientUnits="userSpaceOnUse" gradientTransform="translate(112.928 62.5043) rotate(89.4803) scale(106.454 96.9903)">
<stop stop-color="#FFF386"/>
<stop offset="1" stop-color="#FFF386" stop-opacity="0"/>
</radialGradient>
<radialGradient id="paint2_radial" cx="0" cy="0" r="1" gradientUnits="userSpaceOnUse" gradientTransform="translate(113.212 62.6883) rotate(89.4803) scale(106.123 96.6882)">
<stop stop-color="#FFF386"/>
<stop offset="1" stop-color="#FFF386" stop-opacity="0"/>
</radialGradient>
<radialGradient id="paint3_radial" cx="0" cy="0" r="1" gradientUnits="userSpaceOnUse" gradientTransform="translate(113.513 57.5973) rotate(72.8712) scale(79.0954 72.0636)">
<stop stop-color="#FFF386"/>
<stop offset="1" stop-color="#FFF386" stop-opacity="0"/>
</radialGradient>
<radialGradient id="paint4_radial" cx="0" cy="0" r="1" gradientUnits="userSpaceOnUse" gradientTransform="translate(113.758 57.6676) rotate(72.8712) scale(78.8492 71.8391)">
<stop stop-color="#FFF386"/>
<stop offset="1" stop-color="#FFF386" stop-opacity="0"/>
</radialGradient>
<radialGradient id="paint5_radial" cx="0" cy="0" r="1" gradientUnits="userSpaceOnUse" gradientTransform="translate(102.868 52.0565) rotate(75.578) scale(37.355 28.2012)">
<stop stop-color="#ECF013"/>
<stop offset="1" stop-color="#AEB110"/>
</radialGradient>
<linearGradient id="paint6_linear" x1="92.1996" y1="43.9286" x2="112.171" y2="88.2344" gradientUnits="userSpaceOnUse">
<stop stop-color="#F1F29E" stop-opacity="0.9"/>
<stop offset="0.09375" stop-color="#E4E84B" stop-opacity="0.939326"/>
<stop offset="0.135417" stop-color="#F4F4D1" stop-opacity="0.929213"/>
<stop offset="0.463542" stop-color="#CED200"/>
<stop offset="0.578125" stop-color="#EFEFA5"/>
<stop offset="0.6875" stop-color="#C4BD3B"/>
<stop offset="0.986024" stop-color="#CBB814"/>
</linearGradient>
<radialGradient id="paint7_radial" cx="0" cy="0" r="1" gradientUnits="userSpaceOnUse" gradientTransform="translate(52.2151 21.6524) rotate(20.4785) scale(18.0058 13.5935)">
<stop stop-color="#ECF013"/>
<stop offset="1" stop-color="#AEB110"/>
</radialGradient>
<linearGradient id="paint8_linear" x1="46.0599" y1="23.6281" x2="69.083" y2="27.9519" gradientUnits="userSpaceOnUse">
<stop stop-color="#F1F29E" stop-opacity="0.9"/>
<stop offset="0.09375" stop-color="#E4E84B" stop-opacity="0.939326"/>
<stop offset="0.135417" stop-color="#F4F4D1" stop-opacity="0.929213"/>
<stop offset="0.463542" stop-color="#CED200"/>
<stop offset="0.578125" stop-color="#EFEFA5"/>
<stop offset="0.6875" stop-color="#C4BD3B"/>
<stop offset="0.986024" stop-color="#CBB814"/>
</linearGradient>
<radialGradient id="paint9_radial" cx="0" cy="0" r="1" gradientUnits="userSpaceOnUse" gradientTransform="translate(144.606 0.510057) rotate(105.578) scale(11.1521 8.41925)">
<stop stop-color="#ECF013"/>
<stop offset="1" stop-color="#AEB110"/>
</radialGradient>
<linearGradient id="paint10_linear" x1="143.061" y1="-3.18378" x2="141.611" y2="11.2525" gradientUnits="userSpaceOnUse">
<stop stop-color="#F1F29E" stop-opacity="0.9"/>
<stop offset="0.09375" stop-color="#E4E84B" stop-opacity="0.939326"/>
<stop offset="0.135417" stop-color="#F4F4D1" stop-opacity="0.929213"/>
<stop offset="0.463542" stop-color="#CED200"/>
<stop offset="0.578125" stop-color="#EFEFA5"/>
<stop offset="0.6875" stop-color="#C4BD3B"/>
<stop offset="0.986024" stop-color="#CBB814"/>
</linearGradient>
<radialGradient id="paint11_radial" cx="0" cy="0" r="1" gradientUnits="userSpaceOnUse" gradientTransform="translate(177.702 37.8737) rotate(130.466) scale(18.0058 13.5935)">
<stop stop-color="#ECF013"/>
<stop offset="1" stop-color="#AEB110"/>
</radialGradient>
<linearGradient id="paint12_linear" x1="177.949" y1="31.4139" x2="166.016" y2="51.5724" gradientUnits="userSpaceOnUse">
<stop stop-color="#F1F29E" stop-opacity="0.9"/>
<stop offset="0.09375" stop-color="#E4E84B" stop-opacity="0.939326"/>
<stop offset="0.135417" stop-color="#F4F4D1" stop-opacity="0.929213"/>
<stop offset="0.463542" stop-color="#CED200"/>
<stop offset="0.578125" stop-color="#EFEFA5"/>
<stop offset="0.6875" stop-color="#C4BD3B"/>
<stop offset="0.986024" stop-color="#CBB814"/>
</linearGradient>
<radialGradient id="paint13_radial" cx="0" cy="0" r="1" gradientUnits="userSpaceOnUse" gradientTransform="translate(221.14 -5.348) rotate(130.466) scale(18.0058 13.5935)">
<stop stop-color="#ECF013"/>
<stop offset="1" stop-color="#AEB110"/>
</radialGradient>
<linearGradient id="paint14_linear" x1="221.387" y1="-11.8078" x2="209.454" y2="8.35069" gradientUnits="userSpaceOnUse">
<stop stop-color="#F1F29E" stop-opacity="0.9"/>
<stop offset="0.09375" stop-color="#E4E84B" stop-opacity="0.939326"/>
<stop offset="0.135417" stop-color="#F4F4D1" stop-opacity="0.929213"/>
<stop offset="0.463542" stop-color="#CED200"/>
<stop offset="0.578125" stop-color="#EFEFA5"/>
<stop offset="0.6875" stop-color="#C4BD3B"/>
<stop offset="0.986024" stop-color="#CBB814"/>
</linearGradient>
<radialGradient id="paint15_radial" cx="0" cy="0" r="1" gradientUnits="userSpaceOnUse" gradientTransform="translate(-8.40203 15.8667) rotate(-7.03475) scale(18.0058 13.5935)">
<stop stop-color="#ECF013"/>
<stop offset="1" stop-color="#AEB110"/>
</radialGradient>
<linearGradient id="paint16_linear" x1="-12.9485" y1="20.4624" x2="9.4682" y2="13.6616" gradientUnits="userSpaceOnUse">
<stop stop-color="#F1F29E" stop-opacity="0.9"/>
<stop offset="0.09375" stop-color="#E4E84B" stop-opacity="0.939326"/>
<stop offset="0.135417" stop-color="#F4F4D1" stop-opacity="0.929213"/>
<stop offset="0.463542" stop-color="#CED200"/>
<stop offset="0.578125" stop-color="#EFEFA5"/>
<stop offset="0.6875" stop-color="#C4BD3B"/>
<stop offset="0.986024" stop-color="#CBB814"/>
</linearGradient>
<radialGradient id="paint17_radial" cx="0" cy="0" r="1" gradientUnits="userSpaceOnUse" gradientTransform="translate(16.3876 132.671) rotate(-59.422) scale(18.0058 13.5935)">
<stop stop-color="#ECF013"/>
<stop offset="1" stop-color="#AEB110"/>
</radialGradient>
<linearGradient id="paint18_linear" x1="17.2533" y1="139.078" x2="25.5474" y2="117.17" gradientUnits="userSpaceOnUse">
<stop stop-color="#F1F29E" stop-opacity="0.9"/>
<stop offset="0.09375" stop-color="#E4E84B" stop-opacity="0.939326"/>
<stop offset="0.135417" stop-color="#F4F4D1" stop-opacity="0.929213"/>
<stop offset="0.463542" stop-color="#CED200"/>
<stop offset="0.578125" stop-color="#EFEFA5"/>
<stop offset="0.6875" stop-color="#C4BD3B"/>
<stop offset="0.986024" stop-color="#CBB814"/>
</linearGradient>
<radialGradient id="paint19_radial" cx="0" cy="0" r="1" gradientUnits="userSpaceOnUse" gradientTransform="translate(217.818 107.792) rotate(-174.267) scale(24.2324 18.2943)">
<stop stop-color="#ECF013"/>
<stop offset="1" stop-color="#AEB110"/>
</radialGradient>
<linearGradient id="paint20_linear" x1="225.152" y1="103.112" x2="193.707" y2="105.371" gradientUnits="userSpaceOnUse">
<stop stop-color="#F1F29E" stop-opacity="0.9"/>
<stop offset="0.09375" stop-color="#E4E84B" stop-opacity="0.939326"/>
<stop offset="0.135417" stop-color="#F4F4D1" stop-opacity="0.929213"/>
<stop offset="0.463542" stop-color="#CED200"/>
<stop offset="0.578125" stop-color="#EFEFA5"/>
<stop offset="0.6875" stop-color="#C4BD3B"/>
<stop offset="0.986024" stop-color="#CBB814"/>
</linearGradient>
<radialGradient id="paint21_radial" cx="0" cy="0" r="1" gradientUnits="userSpaceOnUse" gradientTransform="translate(54.06 99.7374) rotate(-48.3532) scale(8.89636 6.71631)">
<stop stop-color="#ECF013"/>
<stop offset="1" stop-color="#AEB110"/>
</radialGradient>
<linearGradient id="paint22_linear" x1="53.8721" y1="102.926" x2="59.972" y2="93.0896" gradientUnits="userSpaceOnUse">
<stop stop-color="#F1F29E" stop-opacity="0.9"/>
<stop offset="0.09375" stop-color="#E4E84B" stop-opacity="0.939326"/>
<stop offset="0.135417" stop-color="#F4F4D1" stop-opacity="0.929213"/>
<stop offset="0.463542" stop-color="#CED200"/>
<stop offset="0.578125" stop-color="#EFEFA5"/>
<stop offset="0.6875" stop-color="#C4BD3B"/>
<stop offset="0.986024" stop-color="#CBB814"/>
</linearGradient>
<radialGradient id="paint23_radial" cx="0" cy="0" r="1" gradientUnits="userSpaceOnUse" gradientTransform="translate(18.9396 68.3134) rotate(-48.3532) scale(17.1225 12.9266)">
<stop stop-color="#ECF013"/>
<stop offset="1" stop-color="#AEB110"/>
</radialGradient>
<linearGradient id="paint24_linear" x1="18.5779" y1="74.4501" x2="30.3181" y2="55.5185" gradientUnits="userSpaceOnUse">
<stop stop-color="#F1F29E" stop-opacity="0.9"/>
<stop offset="0.09375" stop-color="#E4E84B" stop-opacity="0.939326"/>
<stop offset="0.135417" stop-color="#F4F4D1" stop-opacity="0.929213"/>
<stop offset="0.463542" stop-color="#CED200"/>
<stop offset="0.578125" stop-color="#EFEFA5"/>
<stop offset="0.6875" stop-color="#C4BD3B"/>
<stop offset="0.986024" stop-color="#CBB814"/>
</linearGradient>
<radialGradient id="paint25_radial" cx="0" cy="0" r="1" gradientUnits="userSpaceOnUse" gradientTransform="translate(130.788 123.505) rotate(-134.422) scale(17.1225 12.9266)">
<stop stop-color="#ECF013"/>
<stop offset="1" stop-color="#AEB110"/>
</radialGradient>
<linearGradient id="paint26_linear" x1="136.886" y1="124.287" x2="118.804" y2="111.276" gradientUnits="userSpaceOnUse">
<stop stop-color="#F1F29E" stop-opacity="0.9"/>
<stop offset="0.09375" stop-color="#E4E84B" stop-opacity="0.939326"/>
<stop offset="0.135417" stop-color="#F4F4D1" stop-opacity="0.929213"/>
<stop offset="0.463542" stop-color="#CED200"/>
<stop offset="0.578125" stop-color="#EFEFA5"/>
<stop offset="0.6875" stop-color="#C4BD3B"/>
<stop offset="0.986024" stop-color="#CBB814"/>
</linearGradient>
</defs>
</svg>
