<svg width="136" height="151" viewBox="0 0 136 151" fill="none" xmlns="http://www.w3.org/2000/svg">
<circle cx="67.9993" cy="35.0667" r="31.2473" transform="rotate(180 67.9993 35.0667)" fill="url(#paint0_linear)"/>
<circle cx="67.9993" cy="35.0667" r="31.2473" transform="rotate(180 67.9993 35.0667)" fill="#414141" fill-opacity="0.7"/>
<circle cx="67.9993" cy="35.0667" r="31.2473" transform="rotate(180 67.9993 35.0667)" stroke="black" stroke-width="6.08884"/>
<path d="M22.8985 74.1482C22.8985 98.9953 43.0411 119.137 67.8882 119.136C92.7354 119.135 112.878 98.9921 112.878 74.145C112.878 49.2979 92.7353 29.156 67.8882 29.1569C43.0411 29.1577 22.8985 49.301 22.8985 74.1482Z" fill="url(#paint1_linear)"/>
<path fill-rule="evenodd" clip-rule="evenodd" d="M115.294 33.91C121.508 37.3436 123.761 45.1642 120.328 51.3778L119.082 53.632C115.648 59.8456 107.828 62.0992 101.614 58.6656L86.2364 50.1679C86.0055 50.0403 85.78 49.9066 85.5601 49.7671C85.517 49.7445 85.4739 49.7214 85.4306 49.698C73.6235 43.3201 58.1211 45.6081 51.7389 49.317C51.3154 49.6239 50.8685 49.9084 50.399 50.1679L35.0212 58.6656C28.8076 62.0992 20.987 59.8456 17.5534 53.632L16.3078 51.3778C12.8741 45.1642 15.1277 37.3436 21.3413 33.91L34.868 26.4352C35.7128 25.7942 36.87 25.1984 38.1712 24.7231C38.9869 24.3964 39.8211 24.1592 40.6615 24.0081C42.9868 23.513 45.4249 23.4683 47.2269 24.2096C49.1692 25.0088 54.0288 26.7072 57.5427 26.4788C58.1924 26.4365 59.1211 26.2478 60.2485 26.0187C62.39 25.5835 65.2488 25.0026 68.2763 25.0026C71.3118 25.0026 74.5101 25.6138 76.7908 26.0497C78.0544 26.2912 79.0363 26.4788 79.5526 26.4788C81.2524 26.4788 82.9588 25.8624 84.8812 25.168C86.2903 24.659 87.8154 24.108 89.5389 23.7272C91.9716 23.1898 94.3021 23.4774 96.3828 24.0885C97.5899 24.3466 98.78 24.7843 99.9163 25.4123L101.002 26.0122C101.014 26.0186 101.027 26.025 101.039 26.0315C101.039 26.0319 101.039 26.0323 101.039 26.0328L115.294 33.91Z" fill="url(#paint2_linear)"/>
<path d="M120.328 51.3778L122.992 52.8503L122.992 52.8503L120.328 51.3778ZM115.294 33.91L113.822 36.5746L115.294 33.91ZM119.082 53.632L116.417 52.1596L119.082 53.632ZM101.614 58.6656L103.087 56.001L101.614 58.6656ZM86.2364 50.1679L84.764 52.8325L84.764 52.8325L86.2364 50.1679ZM85.5601 49.7671L87.1903 47.196L87.087 47.1305L86.9788 47.0735L85.5601 49.7671ZM85.4306 49.698L86.8775 47.0194L86.8775 47.0194L85.4306 49.698ZM51.7389 49.317L50.2093 46.6848L50.0766 46.7619L49.9524 46.8519L51.7389 49.317ZM50.399 50.1679L48.9266 47.5032L48.9266 47.5032L50.399 50.1679ZM35.0212 58.6656L36.4937 61.3302L36.4937 61.3302L35.0212 58.6656ZM17.5534 53.632L14.8888 55.1045L14.8888 55.1045L17.5534 53.632ZM16.3078 51.3778L18.9724 49.9053L18.9724 49.9053L16.3078 51.3778ZM21.3413 33.91L22.8138 36.5746L21.3413 33.91ZM34.868 26.4352L36.3404 29.0998L36.5329 28.9935L36.7081 28.8606L34.868 26.4352ZM38.1712 24.7231L39.2156 27.5828L39.2597 27.5667L39.3032 27.5493L38.1712 24.7231ZM40.6615 24.0081L41.2004 27.0044L41.2481 26.9958L41.2955 26.9858L40.6615 24.0081ZM47.2269 24.2096L48.3853 21.3942L47.2269 24.2096ZM57.5427 26.4788L57.7402 29.5168L57.5427 26.4788ZM60.2485 26.0187L60.8548 29.0021L60.8548 29.0021L60.2485 26.0187ZM68.2763 25.0026L68.2763 28.047L68.2763 25.0026ZM76.7908 26.0497L77.3623 23.0594L77.3622 23.0594L76.7908 26.0497ZM79.5526 26.4788L79.5526 23.4344L79.5526 23.4344L79.5526 26.4788ZM84.8812 25.168L85.9155 28.0313L85.9155 28.0313L84.8812 25.168ZM89.5389 23.7272L90.1957 26.7L90.1957 26.7L89.5389 23.7272ZM96.3828 24.0885L95.5248 27.0096L95.6345 27.0418L95.7463 27.0657L96.3828 24.0885ZM99.9163 25.4123L98.4439 28.0769L98.4439 28.0769L99.9163 25.4123ZM101.002 26.0122L99.5295 28.6768L99.5694 28.6989L99.61 28.7197L101.002 26.0122ZM101.039 26.0315L104.06 26.4091L104.324 24.2991L102.434 23.3251L101.039 26.0315ZM101.039 26.0328L98.0183 25.6552L97.7626 27.7005L99.5667 28.6974L101.039 26.0328ZM122.992 52.8503C127.239 45.165 124.452 35.4922 116.767 31.2454L113.822 36.5746C118.564 39.195 120.283 45.1634 117.663 49.9053L122.992 52.8503ZM121.747 55.1045L122.992 52.8503L117.663 49.9053L116.417 52.1596L121.747 55.1045ZM100.142 61.3302C107.827 65.5771 117.5 62.7897 121.747 55.1045L116.417 52.1596C113.797 56.9015 107.829 58.6214 103.087 56.001L100.142 61.3302ZM84.764 52.8325L100.142 61.3302L103.087 56.001L87.7089 47.5032L84.764 52.8325ZM83.9299 52.3383C84.2014 52.5104 84.4795 52.6753 84.764 52.8325L87.7089 47.5032C87.5315 47.4052 87.3586 47.3027 87.1903 47.196L83.9299 52.3383ZM86.9788 47.0735C86.9452 47.0558 86.9114 47.0378 86.8775 47.0194L83.9836 52.3766C84.0363 52.4051 84.0889 52.4331 84.1414 52.4608L86.9788 47.0735ZM86.8775 47.0194C80.3687 43.5036 72.9636 42.4297 66.4325 42.6829C59.9507 42.9341 53.9532 44.5091 50.2093 46.6848L53.2686 51.9492C55.9069 50.4161 60.8517 48.9926 66.6684 48.7671C72.4358 48.5436 78.6854 49.5146 83.9836 52.3766L86.8775 47.0194ZM49.9524 46.8519C49.6291 47.0862 49.2871 47.304 48.9266 47.5032L51.8715 52.8325C52.4499 52.5129 53.0016 52.1617 53.5254 51.7821L49.9524 46.8519ZM48.9266 47.5032L33.5488 56.001L36.4937 61.3302L51.8715 52.8325L48.9266 47.5032ZM33.5488 56.001C28.8068 58.6214 22.8385 56.9015 20.2181 52.1595L14.8888 55.1045C19.1356 62.7897 28.8085 65.5771 36.4937 61.3302L33.5488 56.001ZM20.2181 52.1595L18.9724 49.9053L13.6431 52.8503L14.8888 55.1045L20.2181 52.1595ZM18.9724 49.9053C16.352 45.1634 18.0719 39.195 22.8138 36.5746L19.8689 31.2454C12.1836 35.4922 9.39628 45.165 13.6431 52.8503L18.9724 49.9053ZM22.8138 36.5746L36.3404 29.0998L33.3955 23.7706L19.8689 31.2454L22.8138 36.5746ZM36.7081 28.8606C37.2438 28.4541 38.1083 27.9872 39.2156 27.5828L37.1267 21.8635C35.6317 22.4095 34.1817 23.1344 33.0278 24.0099L36.7081 28.8606ZM39.3032 27.5493C39.9255 27.3 40.5609 27.1194 41.2004 27.0044L40.1226 21.0117C39.0813 21.199 38.0482 21.4928 37.0392 21.897L39.3032 27.5493ZM41.2955 26.9858C43.3588 26.5465 45.0864 26.621 46.0685 27.0251L48.3853 21.3942C45.7635 20.3155 42.6147 20.4796 40.0276 21.0304L41.2955 26.9858ZM46.0685 27.0251C47.1402 27.466 48.9718 28.138 51.0254 28.675C53.0285 29.1987 55.4958 29.6627 57.7402 29.5168L57.3452 23.4408C56.0757 23.5233 54.3563 23.2523 52.5655 22.7841C50.8253 22.3292 49.2559 21.7524 48.3853 21.3942L46.0685 27.0251ZM57.7402 29.5168C58.6479 29.4578 59.8243 29.2116 60.8548 29.0021L59.6423 23.0353C58.4178 23.2841 57.737 23.4153 57.3452 23.4408L57.7402 29.5168ZM60.8548 29.0021C63.0193 28.5623 65.5958 28.047 68.2763 28.047L68.2763 21.9582C64.9018 21.9581 61.7608 22.6048 59.6423 23.0353L60.8548 29.0021ZM68.2763 28.047C70.9776 28.047 73.8968 28.5961 76.2193 29.04L77.3622 23.0594C75.1235 22.6315 71.646 21.9582 68.2763 21.9582L68.2763 28.047ZM76.2193 29.04C76.8384 29.1583 77.4424 29.2739 77.957 29.3587C78.4253 29.4359 79.0197 29.5232 79.5526 29.5232L79.5526 23.4344C79.5692 23.4344 79.4145 23.4279 78.9469 23.3509C78.5255 23.2815 78.0067 23.1825 77.3623 23.0594L76.2193 29.04ZM79.5526 29.5232C81.8881 29.5232 84.1234 28.6787 85.9155 28.0313L83.8469 22.3046C81.7943 23.0461 80.6168 23.4344 79.5526 23.4344L79.5526 29.5232ZM85.9155 28.0313C87.3403 27.5166 88.6908 27.0325 90.1957 26.7L88.8821 20.7545C86.9399 21.1836 85.2403 21.8013 83.8469 22.3046L85.9155 28.0313ZM90.1957 26.7C91.9885 26.3039 93.7795 26.4969 95.5248 27.0096L97.2408 21.1675C94.8247 20.4579 91.9547 20.0757 88.8821 20.7545L90.1957 26.7ZM101.389 22.7476C99.9878 21.9735 98.5157 21.4313 97.0193 21.1114L95.7463 27.0657C96.6641 27.2619 97.5722 27.5952 98.4439 28.0769L101.389 22.7476ZM102.474 23.3475L101.389 22.7476L98.4439 28.0769L99.5295 28.6768L102.474 23.3475ZM99.61 28.7197C99.6215 28.7257 99.6331 28.7317 99.645 28.7378L102.434 23.3251C102.421 23.3184 102.407 23.3116 102.394 23.3046L99.61 28.7197ZM98.0185 25.6538C98.0189 25.6503 98.0193 25.6473 98.0192 25.6481C98.0192 25.6481 98.0192 25.6484 98.0191 25.6487C98.0191 25.649 98.019 25.6495 98.019 25.65C98.0188 25.6512 98.0186 25.653 98.0183 25.6552L104.06 26.4104C104.06 26.4139 104.059 26.4169 104.059 26.4161C104.059 26.4161 104.059 26.4159 104.059 26.4156C104.06 26.4153 104.06 26.4148 104.06 26.4142C104.06 26.4131 104.06 26.4113 104.06 26.4091L98.0185 25.6538ZM116.767 31.2454L102.512 23.3681L99.5667 28.6974L113.822 36.5746L116.767 31.2454Z" fill="black"/>
<path d="M98.4081 60.3073L106.689 54.1258C103.033 47.9333 97.316 48.9346 94.9142 50.2093L98.4081 60.3073Z" fill="url(#paint3_linear)" stroke="black" stroke-width="3.38269"/>
<path d="M38.3038 60.3073L30.0231 54.1258C33.6785 47.9333 39.3959 48.9346 41.7977 50.2093L38.3038 60.3073Z" fill="url(#paint4_linear)" stroke="black" stroke-width="3.38269"/>
<path d="M123.812 45.6486L114.207 39.7399C108.949 45.1636 112.104 50.2741 114.338 52.1514L123.812 45.6486Z" fill="url(#paint5_linear)" stroke="black" stroke-width="3.38269"/>
<path d="M12.9003 45.6486L22.5052 39.7399C27.7624 45.1636 24.6082 50.2741 22.374 52.1514L12.9003 45.6486Z" fill="url(#paint6_linear)" stroke="black" stroke-width="3.38269"/>
<path d="M77.4873 21.5149L75.273 32.5722C82.1824 35.6243 85.8833 30.8946 86.8701 28.1482L77.4873 21.5149Z" fill="url(#paint7_linear)" stroke="black" stroke-width="3.38269"/>
<path d="M59.5469 21.5149L61.7611 32.5722C54.8518 35.6243 51.1509 30.8946 50.1641 28.1482L59.5469 21.5149Z" fill="url(#paint8_linear)" stroke="black" stroke-width="3.38269"/>
<path d="M105.723 24.4362L96.7213 29.5111C99.5571 36.1193 105.355 35.8553 107.9 34.8973L105.723 24.4362Z" fill="url(#paint9_linear)" stroke="black" stroke-width="3.38269"/>
<path d="M30.9903 24.4362L39.9916 29.5111C37.1558 36.1193 31.3574 35.8553 28.8127 34.8973L30.9903 24.4362Z" fill="url(#paint10_linear)" stroke="black" stroke-width="3.38269"/>
<path d="M68.3698 91.2529C74.9629 88.8575 89.4064 82.4071 94.4355 75.7686" stroke="black" stroke-width="0.676537"/>
<path d="M91.1782 50.1292L99.1768 72.9029C93.2889 78.8277 78.8916 90.833 68.4046 91.4551" stroke="black" stroke-width="0.676537"/>
<path d="M35.7285 71.7542L44.2223 47.5704L92.6002 47.6278L100.985 71.7542C93.0478 80.2829 68.406 91.4551 68.406 91.4551C54.6595 85.2266 47.6702 80.667 35.7285 71.7542Z" fill="url(#paint11_linear)"/>
<path d="M35.7285 71.7542L44.2223 47.5704L92.6002 47.6278L100.985 71.7542C93.0478 80.2829 68.406 91.4551 68.406 91.4551C54.6595 85.2266 47.6702 80.667 35.7285 71.7542Z" fill="#C6C6C6" fill-opacity="0.5"/>
<path d="M35.7285 71.7542L44.2223 47.5704L92.6002 47.6278L100.985 71.7542C93.0478 80.2829 68.406 91.4551 68.406 91.4551C54.6595 85.2266 47.6702 80.667 35.7285 71.7542Z" stroke="black" stroke-width="6.08884"/>
<path d="M40.9687 63.7524L48.0983 43.4529L88.706 43.501L95.744 63.7524C89.0818 70.9113 68.3978 80.2891 68.3978 80.2891C56.8592 75.0609 50.9924 71.2337 40.9687 63.7524Z" fill="url(#paint12_linear)" stroke="black" stroke-width="6.08884"/>
<mask id="path-17-inside-1" fill="white">
<path fill-rule="evenodd" clip-rule="evenodd" d="M96.2988 50.4569L68.6627 71.4629L39.479 52.3685C42.5094 39.339 54.1938 29.631 68.1456 29.631C81.4062 29.631 92.6184 38.4008 96.2988 50.4569Z"/>
</mask>
<path fill-rule="evenodd" clip-rule="evenodd" d="M96.2988 50.4569L68.6627 71.4629L39.479 52.3685C42.5094 39.339 54.1938 29.631 68.1456 29.631C81.4062 29.631 92.6184 38.4008 96.2988 50.4569Z" fill="url(#paint13_linear)"/>
<path fill-rule="evenodd" clip-rule="evenodd" d="M96.2988 50.4569L68.6627 71.4629L39.479 52.3685C42.5094 39.339 54.1938 29.631 68.1456 29.631C81.4062 29.631 92.6184 38.4008 96.2988 50.4569Z" fill="#C6C6C6" fill-opacity="0.5"/>
<path d="M68.6627 71.4629L65.329 76.558L68.9255 78.9112L72.3472 76.3104L68.6627 71.4629ZM96.2988 50.4569L99.9834 55.3044L103.361 52.737L102.122 48.6792L96.2988 50.4569ZM39.479 52.3685L33.5485 50.9892L32.5845 55.1339L36.1454 57.4637L39.479 52.3685ZM72.3472 76.3104L99.9834 55.3044L92.6143 45.6095L64.9781 66.6154L72.3472 76.3104ZM36.1454 57.4637L65.329 76.558L71.9963 66.3677L42.8127 47.2734L36.1454 57.4637ZM45.4096 53.7478C47.8129 43.4145 57.088 35.7198 68.1456 35.7198L68.1456 23.5422C51.2996 23.5422 37.2059 35.2636 33.5485 50.9892L45.4096 53.7478ZM68.1456 35.7198C78.6537 35.7198 87.5548 42.6679 90.4753 52.2347L102.122 48.6792C97.682 34.1337 84.1587 23.5421 68.1456 23.5422L68.1456 35.7198Z" fill="black" mask="url(#path-17-inside-1)"/>
<path d="M68.4834 67.2703L68.4834 90.6943" stroke="black" stroke-width="6.08884"/>
<path d="M50.1611 131.211C42.1073 139.265 29.0592 139.277 21.0172 131.238C12.9752 123.2 12.9847 110.154 21.0385 102.1C29.0922 94.0464 42.1404 94.0343 50.1824 102.073C58.2244 110.112 58.2148 123.157 50.1611 131.211Z" fill="url(#paint14_linear)" stroke="black" stroke-width="7.50704" stroke-miterlimit="10"/>
<mask id="mask0" mask-type="alpha" maskUnits="userSpaceOnUse" x="75" y="90" width="53" height="53">
<rect x="127.355" y="142.353" width="51.4168" height="51.4168" transform="rotate(180 127.355 142.353)" fill="#C4C4C4"/>
</mask>
<g mask="url(#mask0)">
<path d="M83.7801 106.324C78.0821 116.193 81.4627 128.815 91.3308 134.515C101.199 140.215 113.818 136.835 119.516 126.966C125.214 117.096 121.833 104.475 111.965 98.7749C102.097 93.0749 89.4782 96.4548 83.7801 106.324Z" fill="url(#paint15_linear)"/>
<path fill-rule="evenodd" clip-rule="evenodd" d="M116.265 125.087C120.927 117.013 118.161 106.688 110.088 102.025C102.015 97.3617 91.6919 100.127 87.0303 108.201C82.3688 116.275 85.1344 126.6 93.2075 131.263C101.281 135.926 111.604 133.161 116.265 125.087ZM113.842 95.5235C125.505 102.26 129.501 117.178 122.766 128.842C116.031 140.507 101.117 144.501 89.454 137.765C77.7908 131.028 73.7953 116.11 80.5298 104.446C87.2643 92.7813 102.179 88.7866 113.842 95.5235Z" fill="black"/>
</g>
<defs>
<linearGradient id="paint0_linear" x1="38.16" y1="0.775002" x2="103.219" y2="9.06895" gradientUnits="userSpaceOnUse">
<stop stop-color="#9D9D9D"/>
<stop offset="0.0989583" stop-color="#E3E3E3"/>
<stop offset="0.128224" stop-color="#AEAEAE"/>
<stop offset="0.279799" stop-color="#D0D0D0"/>
<stop offset="0.366549" stop-color="#9A9898"/>
<stop offset="0.572917" stop-color="#878787"/>
<stop offset="0.807292" stop-color="#575252"/>
<stop offset="0.885417" stop-color="#959595"/>
<stop offset="1" stop-color="#363636"/>
</linearGradient>
<linearGradient id="paint1_linear" x1="116.041" y1="74.1466" x2="27.4716" y2="51.3187" gradientUnits="userSpaceOnUse">
<stop stop-color="#B0B0B0"/>
<stop offset="0.109375" stop-color="#E3E3E3"/>
<stop offset="0.229167" stop-color="#717171"/>
<stop offset="0.319195" stop-color="#CDCDCD"/>
<stop offset="0.494792" stop-color="#939393"/>
<stop offset="0.677083" stop-color="#CACACA"/>
<stop offset="0.859375" stop-color="#707070"/>
<stop offset="0.994792" stop-color="#2E2E2E"/>
</linearGradient>
<linearGradient id="paint2_linear" x1="114.972" y1="60.2715" x2="24.1169" y2="26.5461" gradientUnits="userSpaceOnUse">
<stop stop-color="#9D9D9D"/>
<stop offset="0.0989583" stop-color="#E3E3E3"/>
<stop offset="0.128224" stop-color="#AEAEAE"/>
<stop offset="0.279799" stop-color="#D0D0D0"/>
<stop offset="0.366549" stop-color="#9A9898"/>
<stop offset="0.572917" stop-color="#878787"/>
<stop offset="0.807292" stop-color="#575252"/>
<stop offset="0.885417" stop-color="#959595"/>
<stop offset="1" stop-color="#363636"/>
</linearGradient>
<linearGradient id="paint3_linear" x1="103.271" y1="58.5827" x2="96.0736" y2="50.9421" gradientUnits="userSpaceOnUse">
<stop stop-color="#C4C4C4"/>
<stop offset="0.921527" stop-color="#686868"/>
</linearGradient>
<linearGradient id="paint4_linear" x1="33.4413" y1="58.5827" x2="40.6383" y2="50.9421" gradientUnits="userSpaceOnUse">
<stop stop-color="#C4C4C4"/>
<stop offset="0.921527" stop-color="#686868"/>
</linearGradient>
<linearGradient id="paint5_linear" x1="117.068" y1="50.9067" x2="115.87" y2="43.2624" gradientUnits="userSpaceOnUse">
<stop stop-color="#C4C4C4"/>
<stop offset="0.921527" stop-color="#686868"/>
</linearGradient>
<linearGradient id="paint6_linear" x1="19.6438" y1="50.9067" x2="20.8421" y2="43.2624" gradientUnits="userSpaceOnUse">
<stop stop-color="#C4C4C4"/>
<stop offset="0.921527" stop-color="#686868"/>
</linearGradient>
<linearGradient id="paint7_linear" x1="84.7564" y1="26.0186" x2="78.0009" y2="29.7915" gradientUnits="userSpaceOnUse">
<stop stop-color="#C4C4C4"/>
<stop offset="0.921527" stop-color="#686868"/>
</linearGradient>
<linearGradient id="paint8_linear" x1="52.2778" y1="26.0186" x2="59.0332" y2="29.7915" gradientUnits="userSpaceOnUse">
<stop stop-color="#C4C4C4"/>
<stop offset="0.921527" stop-color="#686868"/>
</linearGradient>
<linearGradient id="paint9_linear" x1="107.35" y1="30.5681" x2="100.182" y2="30.0381" gradientUnits="userSpaceOnUse">
<stop stop-color="#C4C4C4"/>
<stop offset="0.921527" stop-color="#686868"/>
</linearGradient>
<linearGradient id="paint10_linear" x1="29.3629" y1="30.5681" x2="36.5309" y2="30.0381" gradientUnits="userSpaceOnUse">
<stop stop-color="#C4C4C4"/>
<stop offset="0.921527" stop-color="#686868"/>
</linearGradient>
<linearGradient id="paint11_linear" x1="98.3386" y1="72.5974" x2="35.7284" y2="64.1631" gradientUnits="userSpaceOnUse">
<stop stop-color="#B5B5B5"/>
<stop offset="0.140625" stop-color="#939393"/>
<stop offset="0.2849" stop-color="#D2D2D2"/>
<stop offset="0.502144" stop-color="#B5B5B5"/>
<stop offset="0.570486" stop-color="#D2D2D2"/>
<stop offset="0.809219" stop-color="#5B5B5B"/>
<stop offset="0.972069" stop-color="#919090"/>
</linearGradient>
<linearGradient id="paint12_linear" x1="91.94" y1="71.4343" x2="47.4422" y2="55.4384" gradientUnits="userSpaceOnUse">
<stop stop-color="#C4C4C4"/>
<stop offset="0.287698" stop-color="#D1D1D1"/>
<stop offset="0.508807" stop-color="#D2D2D2"/>
<stop offset="0.884694" stop-color="#777777"/>
<stop offset="1" stop-color="#AFAFAF"/>
</linearGradient>
<linearGradient id="paint13_linear" x1="83.2218" y1="61.0377" x2="51.4068" y2="42.7034" gradientUnits="userSpaceOnUse">
<stop stop-color="#C4C4C4"/>
<stop offset="0.166667" stop-color="#AFAFAF"/>
<stop offset="0.307292" stop-color="#D2D2D2"/>
<stop offset="0.578125" stop-color="#676767"/>
<stop offset="0.921527" stop-color="#686868"/>
</linearGradient>
<linearGradient id="paint14_linear" x1="33.7277" y1="89.411" x2="9.60225" y2="120.613" gradientUnits="userSpaceOnUse">
<stop stop-color="#9D9D9D"/>
<stop offset="0.0989583" stop-color="#E3E3E3"/>
<stop offset="0.128224" stop-color="#AEAEAE"/>
<stop offset="0.279799" stop-color="#D0D0D0"/>
<stop offset="0.366549" stop-color="#9A9898"/>
<stop offset="0.572917" stop-color="#878787"/>
<stop offset="0.807292" stop-color="#575252"/>
<stop offset="0.885417" stop-color="#959595"/>
<stop offset="1" stop-color="#363636"/>
</linearGradient>
<linearGradient id="paint15_linear" x1="128.493" y1="111.416" x2="104.592" y2="142.818" gradientUnits="userSpaceOnUse">
<stop stop-color="#9D9D9D"/>
<stop offset="0.0989583" stop-color="#E3E3E3"/>
<stop offset="0.128224" stop-color="#AEAEAE"/>
<stop offset="0.279799" stop-color="#D0D0D0"/>
<stop offset="0.366549" stop-color="#9A9898"/>
<stop offset="0.572917" stop-color="#878787"/>
<stop offset="0.807292" stop-color="#575252"/>
<stop offset="0.885417" stop-color="#959595"/>
<stop offset="1" stop-color="#363636"/>
</linearGradient>
</defs>
</svg>
