<svg width="153" height="153" viewBox="0 0 153 153" fill="none" xmlns="http://www.w3.org/2000/svg">
<mask id="mask0" mask-type="alpha" maskUnits="userSpaceOnUse" x="0" y="0" width="153" height="153">
<circle cx="76.7627" cy="76.6436" r="75.8018" fill="#C4C4C4"/>
</mask>
<g mask="url(#mask0)">
<circle cx="76.7627" cy="76.6436" r="73.3018" stroke="#F9D749" stroke-width="5"/>
<path d="M68.1703 98.3305V95.466H76.7638V98.3305H68.1703ZM33.7962 89.737H88.2219V92.6015H33.7962V98.3305C33.7962 99.0954 34.0941 99.8144 34.6355 100.356C35.1768 100.897 35.8958 101.195 36.6607 101.195H88.2219V104.06H83.9251V115.518H88.2219V118.382H56.7123V115.518H61.009V104.06H36.6607C35.131 104.06 33.6916 103.464 32.6102 102.381C31.5275 101.298 30.9316 99.8602 30.9316 98.3305V91.1693V89.737V43.9048C30.9316 42.3752 31.5275 40.9357 32.6102 39.8544C33.6916 38.7716 35.131 38.1758 36.6607 38.1758H108.273C109.803 38.1758 111.241 38.7716 112.324 39.8544C113.407 40.9357 114.003 42.3752 114.003 43.9048V63.9564H111.138V43.9048C111.138 43.14 110.84 42.421 110.299 41.8796C109.757 41.3382 109.038 41.0403 108.273 41.0403H36.6607C35.8958 41.0403 35.1768 41.3382 34.6355 41.8796C34.0941 42.421 33.7962 43.14 33.7962 43.9048V89.737ZM81.0606 104.06H63.8735V115.518H81.0606V104.06ZM39.5252 46.7693H105.409V63.9564H108.273V43.9048H36.6607V86.8725H88.2219V84.008H39.5252V46.7693ZM122.596 71.1177V114.085C122.596 116.454 120.668 118.382 118.299 118.382H95.3832C93.0142 118.382 91.0864 116.454 91.0864 114.085V71.1177C91.0864 68.7487 93.0142 66.8209 95.3832 66.8209H118.299C120.668 66.8209 122.596 68.7487 122.596 71.1177ZM93.9509 71.1177V78.279H119.732V71.1177C119.732 70.3285 119.09 69.6854 118.299 69.6854H95.3832C94.5926 69.6854 93.9509 70.3285 93.9509 71.1177ZM119.732 114.085V81.1435H93.9509V114.085C93.9509 114.876 94.5926 115.518 95.3832 115.518H118.299C119.09 115.518 119.732 114.876 119.732 114.085ZM103.977 112.653H109.706V109.789H103.977V112.653ZM108.273 72.5499H105.409V75.4144H108.273V72.5499ZM78.1961 53.9306H67.331L69.1829 52.0787L67.1577 50.0535L61.8483 55.3629L67.1577 60.6722L69.1829 58.647L67.331 56.7951H78.1961C80.1082 56.7951 81.9071 57.5399 83.2591 58.8934C84.6112 60.2454 85.3574 62.0443 85.3574 63.9564V75.4144H88.2219V63.9564C88.2219 61.2781 87.1778 58.7616 85.2843 56.8682C83.3909 54.9747 80.873 53.9306 78.1961 53.9306ZM61.675 71.8839C60.3215 70.5319 59.5768 68.733 59.5768 66.8209V55.3629H56.7123V66.8209C56.7123 69.4992 57.7564 72.0157 59.6498 73.9091C61.5433 75.8026 64.0597 76.8467 66.738 76.8467H77.6031L75.7512 78.6986L77.7765 80.7238L83.0858 75.4144L77.7765 70.1051L75.7512 72.1303L77.6031 73.9822H66.738C64.826 73.9822 63.0271 73.2374 61.675 71.8839ZM112.57 101.195H101.112V89.737H106.841V86.8725H98.2477V104.06H115.435V95.466H112.57V101.195ZM104.989 93.0212L102.964 95.0464L106.841 98.9235L115.015 90.7496L112.99 88.7244L106.841 94.8731L104.989 93.0212Z" fill="#F9D749"/>
</g>
</svg>
