<svg width="25" height="35" viewBox="0 0 25 35" fill="none" xmlns="http://www.w3.org/2000/svg">
<path fill-rule="evenodd" clip-rule="evenodd" d="M4.70331 27.7308C6.11202 30.036 8.47456 31.6702 12.4824 31.6702C16.5032 31.6702 18.8736 30.0335 20.2863 27.728C21.7992 25.2589 22.3745 21.7279 21.9818 17.9041C21.5917 14.1054 20.2771 10.3601 18.4223 7.63742C16.5336 4.86488 14.4196 3.5857 12.4824 3.5857C10.559 3.5857 8.45272 4.86053 6.56729 7.63492C4.71669 10.3581 3.40408 14.1043 3.01382 17.9041C2.62096 21.7292 3.19418 25.2613 4.70331 27.7308ZM12.4824 0.883057C-0.287421 0.883057 -7.16663 34.3729 12.4824 34.3729C32.1726 34.3729 25.2934 0.883057 12.4824 0.883057Z" fill="white"/>
<circle cx="17.065" cy="7.83652" r="2.67636" fill="white"/>
<circle cx="6.16545" cy="10.0411" r="2.20452" fill="white"/>
<circle cx="21.3061" cy="25.6238" r="2.20452" fill="white"/>
<circle cx="11.0044" cy="27.8283" r="2.6353" fill="white"/>
<circle cx="14.699" cy="17.943" r="3.46659" fill="white"/>
<circle cx="3.47324" cy="20.3044" r="2.67636" fill="white"/>
</svg>
