<svg width="31" height="34" viewBox="0 0 31 34" fill="none" xmlns="http://www.w3.org/2000/svg">
<path fill-rule="evenodd" clip-rule="evenodd" d="M8.21709 28.2128C8.20323 28.5803 8.18938 28.9409 8.21016 29.3154C8.33485 30.7371 8.83361 31.4652 9.86578 32.4084C10.9256 33.3099 12.0132 33.6012 13.3848 33.5527C14.8603 33.4625 15.5738 32.9216 16.5159 31.8397C18.1439 29.8425 18.2201 27.977 17.9984 25.5151C17.9222 24.7176 17.8183 24.0171 17.7144 23.4693C17.6105 22.9145 17.4996 22.5053 17.3888 22.0962C17.6867 22.3944 17.9845 22.6926 18.414 23.067C18.8366 23.4346 19.3908 23.8715 20.0419 24.3361C22.0578 25.7578 23.7064 26.6247 26.2557 26.2086C27.6619 25.9381 28.4793 25.5844 29.2967 24.3569C30.031 23.1849 30.322 22.1031 30.0726 20.73C29.7747 19.3638 29.3937 18.5663 28.223 17.748C27.9113 17.5468 27.5857 17.3735 27.2671 17.207C27.5857 17.0337 27.9113 16.8603 28.223 16.6592C29.3937 15.8409 29.7747 15.0433 30.0726 13.6772C30.322 12.304 30.031 11.2222 29.2967 10.0502C28.4793 8.8227 27.6619 8.46902 26.2557 8.19163C23.7064 7.78247 22.0578 8.64933 20.0419 10.071C19.3908 10.5356 18.8366 10.9725 18.414 11.3401C17.9845 11.7146 17.6867 12.0128 17.3888 12.311C17.4996 11.9018 17.6105 11.4927 17.7144 10.9379C17.8183 10.39 17.9222 9.68957 17.9984 8.89205C18.2201 6.43015 18.1439 4.56466 16.5159 2.5674C15.5738 1.48555 14.8603 0.944625 13.3848 0.854471C12.0132 0.805927 10.9256 1.09719 9.86578 1.99873C8.83362 2.94188 8.33485 3.67005 8.21016 5.09171C8.18938 5.4662 8.20323 5.82681 8.21709 6.19437C7.90536 6.00019 7.60056 5.80601 7.26806 5.63957C5.97266 5.0293 5.09289 5.09865 3.76286 5.52861C2.45361 5.99325 1.65697 6.79077 1.01274 8.00438C0.354647 9.32895 0.465483 10.2166 0.929609 11.5759C1.84401 13.9892 3.4165 14.9809 5.66093 16.0212C6.38829 16.354 7.04638 16.6176 7.57285 16.7979C8.10625 16.9851 8.51496 17.0961 8.91674 17.207C8.51496 17.3111 8.10625 17.422 7.57285 17.6023C7.04638 17.7896 6.38829 18.0462 5.66093 18.386C3.4165 19.4262 1.84401 20.4179 0.929609 22.8313C0.465482 24.1905 0.354646 25.0782 1.01274 26.4027C1.65697 27.6164 2.45361 28.4139 3.76286 28.8785C5.09289 29.3085 5.97266 29.3778 7.26805 28.7676C7.60056 28.6011 7.90536 28.4069 8.21709 28.2128Z" fill="white"/>
</svg>
