<svg width="35" height="36" viewBox="0 0 35 36" fill="none" xmlns="http://www.w3.org/2000/svg">
<path d="M29.3768 6.29282C29.2891 6.14102 29.163 6.01494 29.0112 5.92723L22.0981 1.93296C21.946 1.84509 21.7734 1.79883 21.5978 1.79883H13.6128C13.4372 1.79883 13.2646 1.84509 13.1126 1.93296L6.1994 5.92723C6.04748 6.015 5.92133 6.1412 5.83362 6.29315L1.84293 13.2063C1.75518 13.3583 1.70898 13.5307 1.70898 13.7063V21.6912C1.70898 21.8667 1.75518 22.0391 1.84293 22.1912L5.83362 29.1043C5.97652 29.3519 6.21853 29.5264 6.49853 29.5839L10.78 30.4631V31.5018C10.78 32.958 11.9637 34.1417 13.4199 34.1417C14.1543 34.1417 14.8117 33.8394 15.2846 33.3665C15.3658 33.2853 15.4417 33.1988 15.5117 33.1076C15.9937 33.7359 16.7521 34.1417 17.6071 34.1417C18.4605 34.1417 19.2175 33.7357 19.6989 33.1079C20.1803 33.7357 20.9373 34.1417 21.7907 34.1417C23.2519 34.1417 24.4306 32.9566 24.4306 31.5018V30.4631L28.7121 29.5839C28.992 29.5265 29.2339 29.352 29.3768 29.1046L33.3711 22.1915C33.459 22.0394 33.5052 21.8669 33.5052 21.6912V13.7063C33.5052 13.5306 33.459 13.3581 33.3711 13.206L29.3768 6.29282ZM5.81221 23.7522C5.82116 23.6945 5.83627 23.6385 5.857 23.5847C6.1649 24.0067 6.53689 24.3788 6.95868 24.6869C6.82343 24.739 6.67318 24.7573 6.52013 24.7335C6.05494 24.6591 5.7376 24.2215 5.81162 23.7561L5.81221 23.7522ZM9.1444 25.5928C9.39903 25.6324 9.66001 25.653 9.92582 25.653C10.1899 25.653 10.4492 25.6326 10.7023 25.5934C10.644 25.7256 10.5512 25.8442 10.4273 25.9343L10.4267 25.9347C10.0454 26.2125 9.50986 26.1268 9.23403 25.7475L9.23252 25.7455C9.19739 25.6974 9.16802 25.6464 9.1444 25.5928ZM13.0575 24.7328C12.9998 24.724 12.9435 24.7088 12.8891 24.6877C13.3111 24.3794 13.6832 24.007 13.9913 23.5847C14.044 23.72 14.0617 23.8693 14.037 24.0208L14.0365 24.0243C13.9621 24.492 13.5261 24.8073 13.0625 24.7336L13.0575 24.7328ZM6.79299 16.5094C6.85057 16.5183 6.90658 16.5334 6.96036 16.554C6.53805 16.8621 6.16561 17.2343 5.85735 17.6564C5.80482 17.5215 5.78706 17.3719 5.81152 17.2186L5.81161 17.218C5.88576 16.7517 6.32081 16.4346 6.7897 16.5089L6.79299 16.5094ZM4.89225 20.6194C4.89225 20.8849 4.91276 21.1455 4.95229 21.3999C4.81917 21.3414 4.69989 21.2478 4.60796 21.1217C4.33071 20.7378 4.41716 20.2067 4.79603 19.9324L4.79858 19.9305C4.84767 19.8947 4.89898 19.865 4.95208 19.8412C4.91269 20.0948 4.89225 20.3547 4.89225 20.6194ZM14.9558 20.6194C14.9558 20.3549 14.9354 20.0952 14.8961 19.8418C15.0299 19.9006 15.1493 19.9939 15.241 20.1183C15.5174 20.5024 15.4302 21.0357 15.0526 21.3096C15.0022 21.3459 14.9497 21.376 14.8957 21.4C14.9353 21.1456 14.9558 20.8849 14.9558 20.6194ZM14.0357 17.4877C14.0266 17.5464 14.0115 17.6028 13.991 17.6565C13.6829 17.2345 13.3107 16.8622 12.8887 16.5541C13.0237 16.502 13.1735 16.4842 13.3266 16.5087L13.3306 16.5093C13.7924 16.5811 14.1106 17.0162 14.0364 17.4827L14.0357 17.4877ZM10.6173 15.4994C10.6522 15.5467 10.6814 15.597 10.7048 15.6494C10.4509 15.6099 10.1908 15.5894 9.92582 15.5894C9.66028 15.5894 9.39955 15.6099 9.14515 15.6495C9.20361 15.5166 9.29739 15.3969 9.42432 15.3046C9.80335 15.0289 10.3378 15.1133 10.6128 15.4932L10.6128 15.4932L10.6173 15.4994ZM30.414 21.4533C30.3636 21.4896 30.3114 21.5193 30.2582 21.5429C30.2978 21.2885 30.3184 21.0278 30.3184 20.7623C30.3184 20.4968 30.2978 20.2361 30.2582 19.9816C30.3908 20.0399 30.5104 20.1334 30.6027 20.26C30.8788 20.6423 30.7952 21.1743 30.414 21.4533ZM24.5951 25.8848C24.5599 25.8366 24.5305 25.7855 24.5069 25.7321C24.7616 25.7717 25.0226 25.7923 25.2884 25.7923C25.5527 25.7923 25.8123 25.7719 26.0657 25.7326C26.0078 25.8648 25.9151 25.9843 25.7886 26.0781C25.4044 26.3539 24.8713 26.2663 24.5978 25.8885L24.5951 25.8848ZM28.4201 24.8722C28.3605 24.863 28.3041 24.848 28.2509 24.8278C28.6733 24.5195 29.0458 24.147 29.3541 23.7246C29.4066 23.8597 29.4242 24.0088 29.3996 24.1602L29.3996 24.1602L29.3985 24.1671C29.3267 24.6289 28.8916 24.9471 28.425 24.8729L28.4201 24.8722ZM29.3537 17.7984C29.0457 17.3761 28.6736 17.0035 28.2517 16.6951C28.3875 16.6419 28.5372 16.6238 28.6892 16.648L28.6897 16.6481C29.1553 16.7221 29.4731 17.16 29.399 17.6256L29.3982 17.6306C29.3893 17.6886 29.3743 17.7447 29.3537 17.7984ZM25.9773 15.6351C26.0129 15.684 26.0425 15.7354 26.0663 15.7886C25.8128 15.7492 25.553 15.7287 25.2884 15.7287C25.0232 15.7287 24.7628 15.7492 24.5087 15.7887C24.5671 15.6568 24.6598 15.5391 24.7834 15.45L24.7875 15.447C25.1684 15.1696 25.7004 15.2544 25.9766 15.6342L25.9773 15.6351ZM22.15 16.6478C22.2101 16.6577 22.2678 16.6736 22.3226 16.6948C21.9009 17.0029 21.5289 17.375 21.2209 17.7967C21.168 17.6605 21.1498 17.5101 21.1741 17.3579L21.1742 17.3574C21.2481 16.8924 21.6849 16.5749 22.15 16.6478ZM20.1583 20.072C20.2087 20.0359 20.2612 20.0061 20.3149 19.9823C20.2754 20.2365 20.2548 20.497 20.2548 20.7623C20.2548 21.0267 20.2752 21.2864 20.3145 21.5397C20.1815 21.4809 20.0635 21.3879 19.9742 21.2648L19.9731 21.2632C19.6958 20.8825 19.7807 20.3482 20.1583 20.072ZM21.174 23.9003C21.1839 23.8395 21.1997 23.7815 21.2209 23.7267C21.5291 24.1483 21.9014 24.5202 22.3234 24.8281C22.1888 24.8805 22.0392 24.8983 21.8871 24.8735L21.8871 24.8735L21.88 24.8724C21.4187 24.8007 21.1006 24.3663 21.174 23.9003Z" fill="white" stroke="black" stroke-width="2" stroke-linejoin="round"/>
</svg>
