<svg width="31" height="31" viewBox="0 0 31 31" fill="none" xmlns="http://www.w3.org/2000/svg">
<g filter="url(#filter0_d)">
<path fill-rule="evenodd" clip-rule="evenodd" d="M26.4707 1.62109C26.0813 1.22945 25.4481 1.22764 25.0565 1.61705L14.8189 11.7963L4.58121 1.61705C4.18957 1.22764 3.55641 1.22945 3.167 1.62109L2.06065 2.73379C1.67125 3.12543 1.67306 3.75859 2.0647 4.14799L12.2879 14.3128L2.06445 24.4779C1.67281 24.8673 1.671 25.5005 2.0604 25.8921L3.16675 27.0048C3.55616 27.3965 4.18932 27.3983 4.58096 27.0089L14.8189 16.8294L25.0568 27.0089C25.4484 27.3983 26.0816 27.3965 26.471 27.0048L27.5773 25.8921C27.9667 25.5005 27.9649 24.8673 27.5733 24.4779L17.3498 14.3128L27.573 4.14799C27.9647 3.75859 27.9665 3.12543 27.5771 2.73379L26.4707 1.62109Z" fill="white"/>
</g>
<defs>
<filter id="filter0_d" x="0.769531" y="0.326172" width="30.0987" height="29.9736" filterUnits="userSpaceOnUse" color-interpolation-filters="sRGB">
<feFlood flood-opacity="0" result="BackgroundImageFix"/>
<feColorMatrix in="SourceAlpha" type="matrix" values="0 0 0 0 0 0 0 0 0 0 0 0 0 0 0 0 0 0 127 0"/>
<feOffset dx="1" dy="1"/>
<feGaussianBlur stdDeviation="1"/>
<feColorMatrix type="matrix" values="0 0 0 0 0 0 0 0 0 0 0 0 0 0 0 0 0 0 1 0"/>
<feBlend mode="normal" in2="BackgroundImageFix" result="effect1_dropShadow"/>
<feBlend mode="normal" in="SourceGraphic" in2="effect1_dropShadow" result="shape"/>
</filter>
</defs>
</svg>
