<svg width="32" height="31" viewBox="0 0 32 31" fill="none" xmlns="http://www.w3.org/2000/svg">
<path fill-rule="evenodd" clip-rule="evenodd" d="M5.67455 6.64398C5.79497 6.52989 6.05021 6.49621 6.37489 6.49347C6.1669 6.64265 5.99344 6.79993 5.8587 6.94933C5.73429 7.08728 5.57865 7.28823 5.51196 7.51331C5.31202 8.18811 5.4091 8.88395 5.48179 9.40503L5.4822 9.40795C5.5639 9.99358 5.61898 10.3915 5.54164 10.7396C5.3945 11.4017 5.38919 12.1702 5.38919 12.7474C5.38919 13.0948 5.55314 13.4448 5.6764 13.6769C5.81843 13.9442 6.00005 14.2206 6.17041 14.4616C6.3399 14.7014 6.50802 14.9198 6.63437 15.079C6.6342 15.1137 6.63546 15.1496 6.63826 15.1867C6.64962 15.1972 6.66396 15.2098 6.66673 15.2121L6.67065 15.2154L6.67224 15.2168L6.67371 15.218L6.67769 15.2212L6.67827 15.2217L6.95098 15.445L6.95142 15.4454L6.96561 15.4567C6.9894 15.4758 7.01374 15.4946 7.03857 15.5131L6.96318 15.5305L6.9628 15.5305L6.95976 15.5312L6.95747 15.5318C6.87545 15.5507 6.79427 15.5694 6.71437 15.5876C6.13936 15.7187 5.61837 15.8272 5.17969 15.8582C4.11454 15.9333 3.48985 16.6751 3.10986 17.2988L3.08562 17.2866C2.81587 17.151 2.52013 17.0515 2.22474 16.9521C1.28015 16.6344 0.339104 16.3178 0.262594 14.8259C0.162158 12.8674 0.312522 9.4358 1.88602 8.73275C3.45952 8.0297 5.27602 7.02152 5.67455 6.64398ZM11.2594 15.4188C10.9799 15.3995 10.7089 15.3519 10.4363 15.2628C10.2172 15.1912 9.97215 15.1206 9.73215 15.0514L9.70003 15.0422C9.44449 14.9686 9.19057 14.895 8.94604 14.8155C8.47021 14.6608 8.1193 14.5099 7.9148 14.3616L7.91235 14.3586C7.87922 14.3184 7.83125 14.2595 7.77344 14.1868C7.65726 14.0406 7.50387 13.8414 7.35189 13.6264C7.19799 13.4087 7.05535 13.1885 6.95418 12.9981C6.87889 12.8563 6.85158 12.7764 6.84169 12.7474C6.83874 12.7388 6.83734 12.7347 6.83667 12.7348C6.83606 12.7349 6.83607 12.7385 6.83607 12.7454L6.83607 12.7474C6.83607 12.1481 6.84676 11.5363 6.95407 11.0535C7.09022 10.4408 6.99942 9.8015 6.92993 9.31229L6.91521 9.20803C6.84051 8.67259 6.80516 8.29507 6.88513 7.97597C6.8967 7.93784 6.91101 7.8755 6.92804 7.80129C6.98256 7.56371 7.065 7.20444 7.17506 7.12843C7.21371 7.10174 7.25603 7.07132 7.30162 7.03857C7.56518 6.84921 7.93764 6.58161 8.33811 6.50189C8.38733 6.49617 8.4358 6.48948 8.48333 6.48172C8.52575 6.47783 8.5651 6.47042 8.60217 6.45956C8.7191 6.43488 8.82919 6.40254 8.92988 6.36061C9.24339 6.13595 9.6057 5.6899 10.0852 4.75007C11.3797 2.21286 11.6127 1.92807 13.2438 1.92807C14.8748 1.92807 16.4023 1.66917 16.8425 1.48794C17.2146 1.33473 22.1389 0.274765 23.7931 1.48393C23.8623 1.59008 23.9163 1.71622 23.9593 1.86642C23.9719 1.91084 23.9845 2.00927 23.9804 2.19523C23.9775 2.3288 23.9678 2.46583 23.9567 2.62402L23.9567 2.62407C23.9525 2.68361 23.9481 2.74616 23.9438 2.81264C23.9291 3.03809 23.916 3.3005 23.9331 3.5555C23.9499 3.80602 23.9985 4.10748 24.1462 4.38646C24.2659 4.61243 24.3677 4.80166 24.4604 4.97389C24.7041 5.42683 24.8846 5.76227 25.1595 6.3396C25.5771 7.21653 25.871 8.29826 26.0513 9.30808C26.1402 9.80568 26.1803 10.4386 26.1303 11.0523C26.0794 11.678 25.9404 12.211 25.7272 12.5614C25.4806 12.9665 24.9843 13.4204 24.5088 13.7707C24.2394 13.9692 24.0112 14.2463 23.8581 14.4323C23.8274 14.4696 23.7997 14.5032 23.7753 14.5318C23.5903 14.7486 23.4911 14.8227 23.4049 14.8524C23.1575 14.9377 22.8896 14.9871 22.552 15.0488L22.5464 15.0499L22.5464 15.0499C22.2289 15.1079 21.8478 15.1775 21.4719 15.3109C21.3127 15.3674 21.1984 15.3791 20.9447 15.3791L20.9018 15.3791C20.5457 15.379 19.9848 15.3787 19.5192 15.4622C19.4166 15.333 19.283 15.2157 19.1843 15.1549C18.9254 14.9956 18.8716 14.7651 18.975 14.4809C19.0584 14.2516 19.0418 14.1873 19.0039 14.0397C18.9914 13.9913 18.9767 13.9341 18.9624 13.8592C18.9257 13.6664 18.7355 13.6749 18.5636 13.6825C18.5308 13.684 18.4987 13.6854 18.4684 13.6854C18.1994 13.6854 17.8194 13.6839 17.7085 13.384C17.6715 13.2837 17.6851 13.1552 17.6985 13.0282C17.7134 12.8871 17.7281 12.7478 17.673 12.6513C17.6282 12.573 17.4844 12.5986 17.3778 12.6176C17.3395 12.6244 17.306 12.6304 17.2836 12.6304C17.0782 12.6304 16.7793 12.6223 16.7393 12.3624C16.7314 12.3111 16.7308 12.2666 16.7302 12.2303C16.7286 12.1258 16.7281 12.0898 16.5593 12.1573C16.1617 12.3163 15.6935 12.3152 15.2698 12.2829C15.2112 12.2784 15.1253 12.2518 15.0325 12.223C14.8679 12.1721 14.6816 12.1144 14.5874 12.1615C14.4955 12.2074 14.4155 12.276 14.3358 12.3442C14.2799 12.3921 14.2242 12.4399 14.1646 12.4797C14.0052 12.5859 13.8864 12.4615 13.7826 12.3529C13.6802 12.2457 13.5924 12.1538 13.4947 12.3143C13.3367 12.5739 13.2919 12.7533 13.2268 13.0302C13.186 13.2034 13.0747 13.4659 12.9044 13.5431C12.5376 13.7093 12.4073 13.7076 12.0587 13.5054C12.0389 13.4939 12.0157 13.4776 11.9906 13.4599C11.8769 13.3798 11.7251 13.2728 11.6882 13.4761C11.6794 13.5244 11.6752 13.5486 11.6608 13.5606C11.6449 13.5739 11.6167 13.5724 11.5563 13.5724C11.3981 13.5724 11.5764 14.1078 11.6326 14.2767C11.6417 14.3038 11.6475 14.3214 11.6484 14.326C11.5991 14.4245 11.4439 14.5066 11.3271 14.5684C11.3073 14.5789 11.2885 14.5888 11.2716 14.5981C11.1559 14.6617 11.1833 14.9122 11.1983 15.0251C11.2022 15.0545 11.2059 15.0837 11.2095 15.1127C11.2228 15.2184 11.2357 15.3213 11.2594 15.4188ZM19.7971 16.8821C20.108 16.8287 20.5437 16.826 20.9447 16.826C21.2132 16.826 21.4743 16.816 21.7839 16.7291C22.3628 17.0072 22.97 17.7043 23.1526 17.914C23.186 17.9523 23.2052 17.9743 23.2074 17.9746C23.2954 18.0324 23.4445 18.1892 23.5768 18.5491C23.7152 18.9253 23.8098 19.4598 23.8098 20.1495C23.8098 20.1646 23.8103 20.1797 23.8113 20.1947C23.8514 20.8347 23.7139 21.9517 23.512 23.2423C23.4397 23.7041 23.3596 24.1856 23.2805 24.6617L23.2804 24.6621L23.2803 24.6625L23.2803 24.6629L23.2803 24.663C23.1465 25.4674 23.0154 26.2562 22.9288 26.9078C22.9171 26.9953 22.9217 27.0839 22.9418 27.1692C22.683 27.3801 22.4363 27.6156 22.1816 27.8586C21.0443 28.9443 19.7483 30.1815 16.5018 30.0537C15.1055 29.9987 14.1779 30.0072 13.5098 30.0133C12.265 30.0248 11.9209 30.0279 11.1243 29.5968C9.90012 28.9343 9.6481 28.823 8.65878 28.6911C7.14928 28.4898 6.6511 28.1696 5.75816 27.0463C5.63597 26.8926 5.48057 26.7211 5.30561 26.5281C4.57178 25.7185 3.4938 24.5292 3.07885 22.6757C3.00863 21.9906 2.94871 21.3056 2.91791 20.6683C2.92825 20.4637 2.94631 20.2533 2.97281 20.0367C3.03679 19.9984 3.114 19.9543 3.20695 19.9036C3.2866 19.8601 3.35736 19.8021 3.41555 19.7325C3.61522 19.4937 3.77536 19.1683 3.90017 18.9117L3.95944 18.7894C4.07736 18.5457 4.1891 18.3147 4.32004 18.0939C4.6317 17.5684 4.92163 17.3269 5.28153 17.3015C5.84617 17.2616 6.46916 17.1275 7.03599 16.9983C7.12445 16.9781 7.21151 16.9581 7.29715 16.9384L7.30081 16.9375L7.30082 16.9375L7.30094 16.9375C7.78627 16.8258 8.22587 16.7246 8.61531 16.6692C9.28281 16.5741 9.90543 16.6761 10.5977 16.8593C10.7951 16.9116 11.0085 16.974 11.2333 17.0398L11.2333 17.0399C11.3629 17.0778 11.4961 17.1168 11.6323 17.1556C11.6817 17.2097 11.6942 17.2523 11.6254 17.2629C11.529 17.2777 11.4825 17.27 11.4681 17.288C11.4561 17.3031 11.4666 17.3362 11.4893 17.4157C11.4993 17.4505 11.5104 17.4829 11.5213 17.5143C11.5481 17.5919 11.573 17.664 11.573 17.7548C11.573 17.9076 11.6516 17.9592 11.7616 18.0314C11.7738 18.0394 11.7863 18.0476 11.7991 18.0563C11.8102 18.0637 11.8302 18.0759 11.8552 18.0912C11.9692 18.1607 12.1858 18.2929 12.1215 18.32C12.077 18.3387 12.0027 18.3413 11.924 18.344C11.7839 18.3488 11.6304 18.354 11.6086 18.4519C11.5831 18.5667 11.5881 18.5858 11.7154 18.6298C11.7701 18.6488 11.8818 18.657 12.0031 18.6659C12.2241 18.6821 12.4773 18.7006 12.4773 18.791C12.4773 18.8105 12.4674 18.8242 12.4584 18.8367C12.4508 18.8472 12.4439 18.8569 12.4439 18.8685C12.4439 18.9238 12.5649 19.0011 12.6456 19.0527C12.6731 19.0703 12.6958 19.0848 12.7076 19.0945C12.8386 19.2024 13.009 19.3467 13.0802 19.5069C13.1224 19.6019 13.2328 19.6218 13.3418 19.6415C13.4268 19.6568 13.5111 19.672 13.5617 19.7225C13.6209 19.7817 13.6411 19.9762 13.6454 20.0533C13.65 20.1357 13.8643 20.0974 14.1109 20.0533C14.4455 19.9935 14.8397 19.923 14.8512 20.1286C14.8717 20.4978 15.2302 20.4212 15.5244 20.3583C15.6247 20.3369 15.7175 20.317 15.7869 20.317C15.8345 20.317 15.8791 20.3176 15.9226 20.3181C16.0068 20.3191 16.0871 20.3201 16.1783 20.317C16.2605 20.3143 16.3305 20.2865 16.3995 20.2591C16.4645 20.2334 16.5286 20.2079 16.6012 20.204C16.7049 20.1984 16.8114 20.2358 16.9153 20.2723C16.962 20.2888 17.0082 20.305 17.0533 20.317C17.2638 20.3731 17.5298 20.4259 17.7462 20.4259C17.9989 20.4259 17.8264 19.7345 17.8147 19.6971C17.7759 19.5736 17.9425 19.3704 18.1073 19.3374C18.1955 19.3198 18.2604 19.2679 18.3251 19.2162C18.3918 19.1628 18.4583 19.1097 18.5499 19.0945C18.8252 19.0491 18.9299 19.0257 19.0755 18.7345C19.154 18.5774 18.9889 18.2065 18.8996 18.0604C18.831 17.9481 18.9253 17.8565 19.0514 17.734C19.0758 17.7102 19.1015 17.6853 19.1273 17.6589C19.315 17.467 19.3165 17.4291 19.3359 17.4072C19.3548 17.386 19.3906 17.3799 19.6302 17.2629C19.7763 17.1916 19.8183 17.0324 19.7971 16.8821ZM23.8765 16.2202C23.7128 16.2767 23.5469 16.3213 23.3858 16.3584C23.6014 16.5112 23.785 16.6394 23.8906 16.6979C24.3914 16.9758 24.7266 17.4834 24.9348 18.0497C25.1451 18.6216 25.2547 19.3265 25.2567 20.1274C25.304 20.9553 25.1359 22.2232 24.9414 23.466C24.883 23.8397 24.8216 24.2138 24.7607 24.5814C25.4007 24.2441 25.7643 23.9181 25.9822 23.6775C26.5786 23.0189 26.9141 22.7058 27.1359 22.4987C27.3446 22.304 27.4526 22.2032 27.5824 21.9972C27.7132 21.7898 27.8085 21.3729 27.9062 20.9457C28.0134 20.4772 28.1233 19.9964 28.2858 19.7662C28.3468 19.6798 28.4658 19.5494 28.6209 19.3793C29.2555 18.6837 30.4952 17.3247 30.8489 15.5979C31.289 13.4491 30.7971 10.6789 29.891 10.5494C29.1826 10.4482 28.9963 9.99889 28.7632 9.43649C28.6982 9.27951 28.6294 9.11372 28.5447 8.94423C28.4104 8.67566 28.3257 8.40708 28.2294 8.10211C28.0473 7.52513 27.8241 6.81788 27.1466 5.73389C26.4554 4.62793 25.9925 4.3582 25.7729 4.35933C26.0008 4.78323 26.1939 5.14645 26.4659 5.71753C26.9585 6.75216 27.2823 7.97072 27.4756 9.05374C27.5856 9.66933 27.6329 10.4272 27.5725 11.1698C27.5129 11.9003 27.3433 12.6891 26.9631 13.3137C26.5674 13.9638 25.8867 14.5527 25.3671 14.9355C25.2549 15.0183 25.1695 15.1206 25.0275 15.2908C24.9833 15.3438 24.9336 15.4034 24.8759 15.471C24.6717 15.7102 24.3576 16.0543 23.8765 16.2202ZM8.19379 6.99495C8.19379 6.99495 8.19117 6.99457 8.18664 6.99345C8.19164 6.99433 8.19379 6.99495 8.19379 6.99495Z" fill="white"/>
<circle cx="15.4801" cy="16.2744" r="1.17537" fill="white"/>
</svg>
